<svg width="306" height="259" viewBox="0 0 306 259" fill="none" xmlns="http://www.w3.org/2000/svg">
<g opacity="0.9">
<g filter="url(#filter0_b_79_1166)">
<rect x="74.541" y="258.457" width="218.862" height="139.993" rx="12.3233" transform="rotate(-109.912 74.541 258.457)" fill="#4E4E4E"/>
<rect x="74.3932" y="258.773" width="219.355" height="140.486" rx="12.5698" transform="rotate(-109.912 74.3932 258.773)" stroke="white" stroke-width="0.492933"/>
</g>
<g clip-path="url(#clip0_79_1166)">
<path d="M118.61 31.6087C118.608 32.32 118.734 33.0259 118.981 33.693C119.764 35.8558 121.407 36.9886 122.975 36.4329C124.129 36.0302 124.378 34.6967 124.461 33.7263C124.547 32.7303 124.692 32.355 125.046 32.2299C125.585 32.0409 126.073 32.6287 126.3 33.2572C126.613 34.121 126.664 34.6364 126.625 35.4715L126.597 35.786L128.509 35.4406C128.537 34.8355 128.382 33.8198 128.044 32.8352C127.211 30.5359 125.584 29.4249 123.913 30.0102C122.988 30.3237 122.51 31.1697 122.391 32.629C122.295 33.5247 122.217 34.0866 121.84 34.2232C121.506 34.3442 121.003 34.0693 120.696 33.2244C120.479 32.6671 120.382 32.07 120.412 31.4726L120.429 31.237L118.578 31.5604L118.61 31.6087ZM116.383 26.0662L116.995 27.7559C117.186 28.2817 117.474 28.6254 118.079 28.6662L126.618 29.2491L125.785 26.9497L124.411 26.9274L123.397 24.1202C123.656 23.9516 124.504 23.4149 124.504 23.4149L123.77 21.3872L116.383 26.0662ZM121.527 40.4761L120.733 38.2849L129.262 36.746L130.054 38.9345L121.524 40.4771L121.527 40.4761ZM127.969 44.435L129.002 43.8039L122.751 43.6459L121.911 41.3249L131.177 41.8691L132.016 44.1846L125.913 48.5362C125.812 48.6074 125.742 48.7142 125.717 48.8351C125.611 49.6448 125.606 50.4644 125.7 51.2755L125.52 51.307L124.243 47.7802C124.088 47.2948 124.099 46.8552 124.563 46.5417L127.973 44.4349L127.969 44.4364L127.969 44.435ZM122.541 26.8938L119.978 26.8344C120.006 26.8364 119.449 26.8225 119.108 26.8209L119.747 26.4196L121.88 25.0734L122.54 26.8956L122.542 26.8951L122.541 26.8938Z" fill="white"/>
</g>
<path d="M154.249 210.247L153.509 210.515L149.456 208.837C148.981 208.639 148.574 208.483 148.234 208.367C147.892 208.252 147.585 208.186 147.315 208.169C147.042 208.151 146.776 208.188 146.518 208.281C146.222 208.389 145.991 208.553 145.826 208.774C145.66 208.992 145.563 209.245 145.533 209.532C145.503 209.819 145.544 210.114 145.654 210.419C145.771 210.742 145.941 211.001 146.163 211.193C146.381 211.384 146.633 211.502 146.919 211.548C147.205 211.59 147.508 211.553 147.829 211.437L148.181 212.408C147.687 212.587 147.212 212.63 146.757 212.537C146.301 212.445 145.898 212.24 145.548 211.924C145.196 211.604 144.931 211.199 144.753 210.708C144.575 210.214 144.52 209.739 144.591 209.282C144.661 208.825 144.834 208.424 145.109 208.079C145.385 207.735 145.739 207.484 146.172 207.327C146.482 207.214 146.806 207.161 147.143 207.166C147.476 207.169 147.873 207.243 148.335 207.386C148.793 207.527 149.368 207.745 150.061 208.04L152.771 209.2L152.837 209.176L151.418 205.259L152.324 204.931L154.249 210.247ZM150.534 199.63C150.708 200.112 150.77 200.582 150.718 201.038C150.666 201.495 150.515 201.9 150.265 202.254C150.015 202.609 149.68 202.874 149.26 203.051L148.902 202.064C149.269 201.887 149.522 201.6 149.66 201.203C149.795 200.803 149.784 200.388 149.628 199.958C149.503 199.612 149.311 199.334 149.052 199.124C148.791 198.911 148.492 198.779 148.154 198.728C147.812 198.675 147.462 198.713 147.102 198.843C146.735 198.976 146.436 199.176 146.207 199.442C145.974 199.707 145.824 200.009 145.758 200.349C145.692 200.69 145.723 201.04 145.85 201.401C145.941 201.659 146.077 201.91 146.257 202.151C146.435 202.394 146.619 202.58 146.809 202.71L147.039 203.707L142.707 204.699L141.121 200.321L142.026 199.993L143.302 203.515L145.895 202.911L145.877 202.862C145.677 202.739 145.485 202.563 145.3 202.335C145.115 202.108 144.971 201.852 144.869 201.57C144.682 201.054 144.639 200.55 144.74 200.057C144.837 199.563 145.056 199.124 145.398 198.739C145.739 198.352 146.182 198.059 146.728 197.862C147.266 197.667 147.789 197.614 148.299 197.702C148.805 197.789 149.257 197.998 149.653 198.329C150.046 198.661 150.34 199.095 150.534 199.63ZM147.567 191.44C147.763 191.983 147.846 192.501 147.813 192.993C147.78 193.483 147.642 193.913 147.401 194.283C147.155 194.651 146.816 194.926 146.382 195.108L146.007 194.071C146.27 193.951 146.471 193.773 146.609 193.537C146.744 193.301 146.817 193.031 146.827 192.727C146.838 192.422 146.785 192.108 146.667 191.784C146.536 191.422 146.357 191.124 146.129 190.89C145.902 190.656 145.647 190.5 145.364 190.422C145.082 190.344 144.792 190.359 144.496 190.467C144.186 190.579 143.941 190.755 143.761 190.994C143.578 191.234 143.473 191.526 143.446 191.871C143.419 192.216 143.482 192.602 143.637 193.03L143.882 193.705L142.977 194.033L142.732 193.358C142.611 193.024 142.444 192.752 142.232 192.543C142.019 192.332 141.777 192.195 141.506 192.132C141.234 192.066 140.95 192.086 140.653 192.194C140.368 192.297 140.143 192.45 139.977 192.653C139.812 192.855 139.712 193.093 139.677 193.366C139.642 193.637 139.68 193.927 139.792 194.237C139.898 194.528 140.051 194.783 140.251 195.002C140.448 195.219 140.675 195.372 140.934 195.462C141.19 195.552 141.461 195.553 141.746 195.466L142.103 196.453C141.656 196.597 141.221 196.604 140.798 196.474C140.373 196.346 139.995 196.114 139.662 195.778C139.328 195.44 139.074 195.028 138.898 194.543C138.709 194.021 138.653 193.536 138.729 193.086C138.802 192.638 138.974 192.251 139.244 191.927C139.515 191.602 139.849 191.368 140.246 191.224C140.721 191.052 141.171 191.03 141.596 191.159C142.02 191.284 142.373 191.537 142.656 191.915L142.722 191.891C142.617 191.327 142.693 190.83 142.949 190.399C143.203 189.968 143.598 189.656 144.132 189.463C144.59 189.297 145.047 189.272 145.502 189.39C145.954 189.506 146.361 189.74 146.725 190.092C147.088 190.445 147.369 190.894 147.567 191.44ZM144.559 183.135C144.755 183.678 144.837 184.196 144.805 184.689C144.771 185.179 144.634 185.609 144.392 185.979C144.147 186.347 143.808 186.622 143.374 186.804L142.998 185.767C143.262 185.647 143.463 185.468 143.601 185.232C143.736 184.997 143.809 184.727 143.819 184.422C143.83 184.117 143.777 183.803 143.659 183.48C143.528 183.117 143.349 182.819 143.121 182.585C142.894 182.351 142.639 182.195 142.356 182.118C142.074 182.04 141.784 182.055 141.488 182.162C141.178 182.275 140.933 182.45 140.753 182.689C140.57 182.929 140.465 183.222 140.437 183.567C140.41 183.912 140.474 184.298 140.629 184.726L140.874 185.401L139.969 185.729L139.724 185.054C139.603 184.719 139.436 184.448 139.224 184.239C139.011 184.028 138.769 183.89 138.498 183.827C138.226 183.761 137.942 183.782 137.645 183.889C137.36 183.993 137.135 184.146 136.969 184.348C136.804 184.551 136.704 184.789 136.669 185.062C136.634 185.333 136.672 185.623 136.784 185.933C136.89 186.223 137.042 186.478 137.243 186.697C137.44 186.915 137.667 187.068 137.926 187.157C138.182 187.248 138.453 187.249 138.737 187.161L139.095 188.149C138.648 188.292 138.213 188.3 137.79 188.17C137.365 188.042 136.986 187.81 136.654 187.474C136.32 187.136 136.065 186.724 135.89 186.238C135.701 185.717 135.644 185.232 135.721 184.782C135.794 184.334 135.966 183.947 136.236 183.623C136.506 183.298 136.84 183.064 137.238 182.92C137.713 182.748 138.163 182.726 138.588 182.855C139.012 182.98 139.365 183.232 139.648 183.611L139.714 183.587C139.609 183.023 139.685 182.525 139.941 182.094C140.195 181.664 140.589 181.352 141.124 181.158C141.582 180.992 142.039 180.968 142.494 181.086C142.946 181.201 143.353 181.435 143.717 181.788C144.08 182.14 144.361 182.589 144.559 183.135ZM138.595 166.674C138.77 167.156 138.832 167.626 138.78 168.082C138.728 168.538 138.577 168.944 138.327 169.298C138.077 169.653 137.742 169.918 137.322 170.095L136.964 169.108C137.331 168.931 137.584 168.644 137.722 168.246C137.857 167.847 137.846 167.432 137.69 167.001C137.565 166.656 137.373 166.378 137.114 166.168C136.853 165.955 136.554 165.823 136.216 165.771C135.874 165.718 135.524 165.757 135.164 165.887C134.797 166.02 134.498 166.22 134.269 166.486C134.036 166.751 133.886 167.053 133.82 167.393C133.754 167.734 133.785 168.084 133.912 168.444C134.003 168.703 134.139 168.954 134.319 169.195C134.497 169.438 134.681 169.624 134.871 169.754L135.101 170.751L130.769 171.743L129.183 167.365L130.088 167.037L131.364 170.559L133.957 169.955L133.939 169.906C133.739 169.782 133.547 169.607 133.362 169.379C133.177 169.151 133.033 168.896 132.931 168.614C132.744 168.098 132.701 167.594 132.802 167.101C132.899 166.607 133.118 166.167 133.46 165.783C133.801 165.396 134.244 165.103 134.79 164.906C135.328 164.711 135.851 164.658 136.361 164.746C136.867 164.833 137.319 165.042 137.715 165.373C138.108 165.705 138.402 166.139 138.595 166.674ZM136.545 161.372L135.804 161.641L131.752 159.962C131.277 159.765 130.87 159.608 130.53 159.493C130.187 159.378 129.881 159.312 129.611 159.295C129.337 159.276 129.072 159.313 128.814 159.407C128.518 159.514 128.287 159.678 128.122 159.899C127.956 160.118 127.858 160.37 127.829 160.657C127.799 160.944 127.84 161.24 127.95 161.544C128.067 161.868 128.237 162.126 128.458 162.319C128.677 162.51 128.929 162.628 129.215 162.673C129.5 162.716 129.804 162.679 130.125 162.562L130.476 163.533C129.983 163.712 129.508 163.755 129.052 163.663C128.597 163.57 128.194 163.366 127.843 163.049C127.492 162.73 127.227 162.324 127.049 161.833C126.87 161.34 126.816 160.864 126.886 160.407C126.957 159.951 127.13 159.55 127.405 159.205C127.68 158.86 128.035 158.609 128.468 158.452C128.778 158.34 129.102 158.286 129.439 158.291C129.772 158.295 130.169 158.368 130.631 158.511C131.088 158.653 131.664 158.871 132.357 159.166L135.067 160.325L135.133 160.301L133.714 156.384L134.619 156.056L136.545 161.372ZM132.829 150.755C133.004 151.238 133.066 151.707 133.014 152.164C132.962 152.62 132.811 153.025 132.56 153.38C132.31 153.734 131.975 154 131.555 154.177L131.198 153.189C131.565 153.013 131.818 152.726 131.956 152.328C132.091 151.929 132.08 151.514 131.924 151.083C131.799 150.737 131.607 150.459 131.347 150.249C131.087 150.036 130.788 149.904 130.45 149.853C130.108 149.8 129.757 149.839 129.398 149.969C129.03 150.102 128.732 150.302 128.502 150.568C128.269 150.832 128.12 151.135 128.054 151.475C127.988 151.815 128.019 152.166 128.146 152.526C128.237 152.785 128.372 153.035 128.553 153.277C128.731 153.52 128.915 153.706 129.104 153.836L129.335 154.832L125.003 155.824L123.417 151.446L124.322 151.119L125.598 154.641L128.19 154.037L128.173 153.987C127.973 153.864 127.781 153.689 127.596 153.461C127.411 153.233 127.267 152.978 127.165 152.695C126.978 152.18 126.935 151.675 127.036 151.183C127.133 150.688 127.352 150.249 127.694 149.865C128.035 149.477 128.478 149.185 129.024 148.987C129.561 148.792 130.085 148.739 130.595 148.828C131.101 148.914 131.552 149.123 131.948 149.454C132.342 149.787 132.635 150.22 132.829 150.755ZM129.122 146.277L128.283 146.582L121.082 145.001L120.862 144.392L122.162 143.921L122.311 144.332L127.752 145.527L127.817 145.503L126.011 140.516L126.916 140.188L129.122 146.277ZM129.413 141.685L127.43 142.403L127.039 142.545L120.987 144.738L120.635 143.766L129.062 140.714L129.413 141.685ZM123.837 125.932C124.062 126.551 124.084 127.141 123.905 127.699C123.723 128.258 123.351 128.77 122.79 129.234C122.226 129.699 121.486 130.097 120.57 130.429C119.659 130.759 118.84 130.925 118.112 130.929C117.38 130.93 116.765 130.774 116.267 130.461C115.765 130.146 115.403 129.682 115.18 129.067C114.957 128.453 114.939 127.866 115.124 127.305C115.305 126.743 115.677 126.23 116.241 125.765C116.801 125.298 117.537 124.9 118.447 124.57C119.364 124.238 120.187 124.07 120.918 124.066C121.646 124.063 122.259 124.218 122.757 124.531C123.253 124.845 123.613 125.312 123.837 125.932ZM122.932 126.259C122.709 125.645 122.24 125.275 121.524 125.15C120.809 125.024 119.902 125.16 118.805 125.557C118.075 125.822 117.482 126.125 117.026 126.467C116.569 126.807 116.258 127.17 116.095 127.558C115.93 127.944 115.922 128.34 116.069 128.746C116.289 129.354 116.762 129.722 117.487 129.847C118.209 129.973 119.118 129.838 120.212 129.442C120.942 129.177 121.534 128.876 121.988 128.537C122.443 128.199 122.751 127.838 122.913 127.453C123.074 127.066 123.08 126.668 122.932 126.259ZM120.878 117.763C121.103 118.383 121.125 118.972 120.946 119.53C120.764 120.09 120.392 120.601 119.831 121.065C119.267 121.53 118.527 121.929 117.611 122.261C116.7 122.59 115.881 122.757 115.153 122.76C114.421 122.761 113.806 122.606 113.308 122.293C112.806 121.978 112.444 121.513 112.221 120.899C111.999 120.284 111.98 119.697 112.165 119.137C112.346 118.575 112.718 118.061 113.282 117.596C113.842 117.13 114.578 116.731 115.488 116.401C116.405 116.07 117.228 115.902 117.959 115.897C118.687 115.894 119.3 116.049 119.798 116.362C120.294 116.676 120.654 117.143 120.878 117.763ZM119.973 118.091C119.75 117.476 119.281 117.106 118.565 116.981C117.85 116.855 116.943 116.991 115.846 117.389C115.116 117.653 114.523 117.956 114.067 118.299C113.61 118.638 113.299 119.002 113.136 119.39C112.971 119.775 112.963 120.171 113.11 120.577C113.33 121.186 113.803 121.553 114.528 121.678C115.25 121.805 116.159 121.669 117.253 121.273C117.983 121.009 118.575 120.707 119.029 120.369C119.484 120.031 119.792 119.669 119.954 119.285C120.115 118.898 120.121 118.5 119.973 118.091ZM117.961 109.71C118.136 110.192 118.197 110.662 118.145 111.118C118.093 111.575 117.942 111.98 117.692 112.334C117.442 112.689 117.107 112.954 116.687 113.131L116.329 112.144C116.697 111.967 116.949 111.68 117.088 111.283C117.222 110.883 117.212 110.468 117.056 110.038C116.93 109.692 116.738 109.414 116.479 109.204C116.219 108.991 115.92 108.859 115.581 108.808C115.24 108.755 114.889 108.793 114.53 108.923C114.162 109.056 113.864 109.256 113.634 109.522C113.401 109.787 113.251 110.089 113.185 110.429C113.12 110.77 113.15 111.12 113.278 111.481C113.368 111.739 113.504 111.99 113.685 112.231C113.863 112.474 114.046 112.661 114.236 112.79L114.467 113.787L110.134 114.779L108.549 110.401L109.454 110.073L110.73 113.595L113.322 112.991L113.304 112.942C113.105 112.819 112.912 112.643 112.727 112.415C112.542 112.188 112.399 111.932 112.296 111.65C112.11 111.134 112.067 110.63 112.167 110.137C112.264 109.643 112.484 109.204 112.826 108.819C113.166 108.432 113.61 108.139 114.155 107.942C114.693 107.747 115.217 107.694 115.727 107.782C116.233 107.869 116.684 108.078 117.08 108.409C117.474 108.741 117.767 109.175 117.961 109.71ZM115.072 101.733C115.246 102.216 115.308 102.686 115.256 103.142C115.204 103.598 115.053 104.004 114.803 104.358C114.553 104.713 114.218 104.978 113.798 105.155L113.44 104.168C113.807 103.991 114.06 103.704 114.198 103.306C114.333 102.907 114.322 102.492 114.166 102.061C114.041 101.716 113.849 101.438 113.59 101.228C113.33 101.015 113.03 100.883 112.692 100.831C112.35 100.778 112 100.817 111.64 100.947C111.273 101.08 110.974 101.28 110.745 101.546C110.512 101.81 110.362 102.113 110.296 102.453C110.23 102.794 110.261 103.144 110.388 103.504C110.479 103.763 110.615 104.014 110.795 104.255C110.973 104.498 111.157 104.684 111.347 104.814L111.577 105.81L107.245 106.803L105.659 102.425L106.565 102.097L107.84 105.619L110.433 105.015L110.415 104.966C110.215 104.842 110.023 104.667 109.838 104.439C109.653 104.211 109.509 103.956 109.407 103.674C109.22 103.158 109.177 102.654 109.278 102.161C109.375 101.667 109.595 101.227 109.936 100.843C110.277 100.456 110.72 100.163 111.266 99.9656C111.804 99.7708 112.328 99.7176 112.837 99.806C113.344 99.8926 113.795 100.102 114.191 100.433C114.584 100.765 114.878 101.199 115.072 101.733ZM109.072 85.1721C109.269 85.7152 109.351 86.2331 109.319 86.7258C109.285 87.2158 109.148 87.6458 108.906 88.0156C108.661 88.3837 108.322 88.6587 107.888 88.8406L107.512 87.8038C107.776 87.6834 107.977 87.5052 108.114 87.2691C108.25 87.034 108.322 86.764 108.333 86.4592C108.344 86.1543 108.29 85.8401 108.173 85.5164C108.042 85.1543 107.863 84.8563 107.635 84.6222C107.408 84.3881 107.152 84.2322 106.87 84.1546C106.587 84.077 106.298 84.0918 106.002 84.1992C105.692 84.3114 105.447 84.4871 105.266 84.7262C105.083 84.9662 104.978 85.2587 104.951 85.6037C104.924 85.9486 104.988 86.335 105.143 86.7629L105.388 87.4377L104.482 87.7656L104.238 87.0908C104.117 86.7562 103.95 86.4845 103.738 86.2759C103.525 86.0645 103.283 85.9273 103.012 85.8641C102.739 85.7982 102.455 85.8189 102.159 85.9262C101.874 86.0296 101.648 86.1826 101.483 86.3853C101.317 86.588 101.217 86.8259 101.183 87.099C101.147 87.3694 101.186 87.6596 101.298 87.9696C101.403 88.2603 101.556 88.5153 101.757 88.7344C101.953 88.9517 102.181 89.105 102.44 89.1943C102.696 89.2846 102.966 89.286 103.251 89.1983L103.609 90.1858C103.161 90.3293 102.726 90.3364 102.304 90.207C101.879 90.0786 101.5 89.8466 101.168 89.5109C100.834 89.1725 100.579 88.7606 100.403 88.2751C100.215 87.7539 100.158 87.2685 100.234 86.8189C100.308 86.3704 100.48 85.9839 100.75 85.6594C101.02 85.335 101.354 85.1007 101.752 84.9566C102.227 84.7847 102.676 84.763 103.101 84.8914C103.525 85.017 103.879 85.2691 104.162 85.6476L104.228 85.6237C104.123 85.0598 104.199 84.5622 104.455 84.1311C104.709 83.7009 105.103 83.389 105.638 83.1952C106.096 83.0293 106.553 83.005 107.008 83.1225C107.46 83.2382 107.867 83.4723 108.231 83.8247C108.594 84.1771 108.875 84.6262 109.072 85.1721ZM106.98 79.7568L106.24 80.025L102.187 78.3465C101.713 78.1493 101.305 77.9928 100.965 77.8769C100.623 77.7621 100.317 77.6962 100.047 77.6791C99.773 77.6603 99.5072 77.6977 99.2494 77.7911C98.9532 77.8984 98.7225 78.0626 98.5575 78.2837C98.3915 78.5021 98.2937 78.7547 98.2642 79.0416C98.2347 79.3285 98.275 79.6241 98.3853 79.9286C98.5026 80.2523 98.6721 80.5105 98.894 80.7032C99.1121 80.8941 99.3643 81.0122 99.6507 81.0574C99.936 81.0999 100.239 81.063 100.56 80.9468L100.912 81.9178C100.418 82.0966 99.9434 82.1398 99.4879 82.0473C99.0324 81.9547 98.6294 81.7501 98.2788 81.4334C97.9272 81.1139 97.6625 80.7086 97.4847 80.2176C97.3058 79.7239 97.2516 79.2486 97.3219 78.7918C97.3923 78.335 97.5651 77.9342 97.8405 77.5893C98.1158 77.2444 98.4702 76.9935 98.9036 76.8365C99.2136 76.7242 99.5371 76.6706 99.874 76.6758C100.207 76.6792 100.605 76.7525 101.066 76.8956C101.524 77.037 102.099 77.2552 102.793 77.5502L105.503 78.7096L105.568 78.6857L104.15 74.7687L105.055 74.4408L106.98 79.7568ZM103.223 69.0243C103.448 69.6442 103.47 70.2333 103.291 70.7917C103.109 71.351 102.737 71.8627 102.176 72.3266C101.612 72.7915 100.872 73.1899 99.9557 73.5218C99.045 73.8517 98.2256 74.0182 97.4975 74.0212C96.7657 74.0226 96.1507 73.8668 95.6526 73.5539C95.1507 73.2392 94.7885 72.7746 94.5659 72.1602C94.3434 71.5457 94.3245 70.9583 94.5094 70.398C94.6906 69.8359 95.0631 69.3224 95.627 68.8575C96.1871 68.3908 96.9226 67.9925 97.8332 67.6627C98.7494 67.3308 99.5729 67.1628 100.304 67.1587C101.032 67.1556 101.645 67.3106 102.143 67.6235C102.638 67.9374 102.998 68.4043 103.223 69.0243ZM102.318 69.3522C102.095 68.7377 101.626 68.3677 100.91 68.2422C100.195 68.1167 99.2882 68.2527 98.191 68.6502C97.4613 68.9145 96.8683 69.2177 96.412 69.5599C95.9547 69.8993 95.6443 70.2631 95.4808 70.6512C95.3163 71.0366 95.3076 71.4323 95.4547 71.8382C95.6753 72.4472 96.148 72.8143 96.873 72.9396C97.5951 73.0658 98.5035 72.9307 99.5979 72.5343C100.328 72.27 100.92 71.9686 101.374 71.6302C101.829 71.2918 102.137 70.9303 102.299 70.5459C102.459 70.1588 102.466 69.7609 102.318 69.3522ZM100.306 60.9709C100.481 61.4537 100.542 61.9232 100.49 62.3796C100.438 62.8359 100.287 63.2412 100.037 63.5956C99.7868 63.95 99.4517 64.2157 99.0318 64.3926L98.6741 63.4051C99.0414 63.2286 99.2943 62.9415 99.4326 62.5439C99.5672 62.1445 99.5565 61.7295 99.4005 61.2988C99.2753 60.9532 99.0831 60.6753 98.8239 60.4651C98.5637 60.2522 98.2645 60.1201 97.9263 60.0688C97.5844 60.0158 97.2338 60.0544 96.8744 60.1845C96.5069 60.3177 96.2084 60.5173 95.979 60.7835C95.7459 61.0479 95.5963 61.3503 95.5303 61.6907C95.4644 62.0311 95.4951 62.3815 95.6225 62.7418C95.7132 63.0007 95.8488 63.251 96.0295 63.4927C96.2074 63.7355 96.3913 63.9218 96.581 64.0516L96.8116 65.0479L92.4793 66.0401L90.8935 61.6622L91.7987 61.3343L93.0745 64.8564L95.667 64.2524L95.6491 64.203C95.4494 64.0799 95.257 63.9044 95.0721 63.6766C94.8872 63.4488 94.7436 63.1937 94.6412 62.9111C94.4544 62.3954 94.4114 61.8913 94.5122 61.3986C94.6093 60.9042 94.8287 60.4648 95.1704 60.0804C95.5111 59.6932 95.9544 59.4007 96.5003 59.203C97.0379 59.0082 97.5617 58.9551 98.0715 59.0434C98.5777 59.13 99.0288 59.339 99.425 59.6702C99.8184 60.0025 100.112 60.436 100.306 60.9709Z" fill="white"/>
<g clip-path="url(#clip1_79_1166)">
<path d="M119.875 214.51L116.098 204.083C115.678 202.925 116.253 201.667 117.389 201.256L119.436 200.514L120.724 204.07L124.353 205.811L128.447 204.328L131.25 205.672L134.74 204.407L136.251 208.579L132.761 209.843L131.469 212.67L126.168 214.59L123.365 213.246L119.875 214.51ZM124.437 203.421L127.088 202.461L125.577 198.29L121.483 199.773L122.461 202.473L124.437 203.421ZM125.257 216.583L123.281 215.636L120.631 216.596L122.141 220.767C122.561 221.925 123.808 222.523 124.944 222.111L126.991 221.37L125.257 216.583ZM131.621 214.974L127.527 216.457L129.038 220.628L133.132 219.145L131.621 214.974ZM134.355 211.624L133.445 213.617L135.179 218.404L137.226 217.662C138.362 217.251 138.936 215.993 138.517 214.835L137.006 210.664L134.355 211.624ZM129.358 202.334L131.333 203.282L133.984 202.322L132.473 198.151C132.054 196.993 130.807 196.395 129.671 196.807L127.624 197.548L129.358 202.334Z" fill="white"/>
</g>
<path d="M150.718 139.507C150.898 140.003 150.916 140.474 150.772 140.921C150.627 141.368 150.329 141.778 149.88 142.149C149.429 142.521 148.837 142.84 148.104 143.105C147.376 143.369 146.72 143.502 146.138 143.505C145.552 143.506 145.06 143.381 144.662 143.131C144.26 142.879 143.971 142.507 143.793 142.016C143.615 141.524 143.599 141.054 143.747 140.606C143.892 140.156 144.19 139.746 144.641 139.374C145.09 139 145.678 138.682 146.406 138.418C147.139 138.152 147.798 138.018 148.383 138.015C148.965 138.012 149.456 138.136 149.854 138.386C150.251 138.638 150.539 139.011 150.718 139.507ZM149.994 139.769C149.816 139.278 149.441 138.982 148.868 138.881C148.296 138.781 147.57 138.89 146.693 139.208C146.109 139.419 145.635 139.662 145.269 139.936C144.904 140.207 144.655 140.498 144.525 140.809C144.393 141.117 144.386 141.433 144.504 141.758C144.68 142.245 145.058 142.539 145.638 142.639C146.216 142.74 146.943 142.632 147.818 142.315C148.402 142.104 148.876 141.863 149.239 141.592C149.603 141.321 149.849 141.032 149.979 140.724C150.107 140.415 150.113 140.096 149.994 139.769ZM148.634 133.753C148.798 134.205 148.862 134.634 148.828 135.038C148.79 135.442 148.665 135.791 148.452 136.087C148.236 136.383 147.946 136.596 147.581 136.726C147.297 136.832 147.013 136.871 146.73 136.845C146.445 136.819 146.186 136.736 145.952 136.598C145.715 136.458 145.53 136.273 145.397 136.043L145.358 136.057C145.391 136.41 145.303 136.732 145.094 137.024C144.882 137.317 144.597 137.527 144.238 137.654C143.897 137.78 143.559 137.805 143.226 137.727C142.892 137.649 142.592 137.485 142.325 137.234C142.057 136.981 141.851 136.657 141.708 136.262C141.567 135.871 141.518 135.494 141.563 135.131C141.607 134.767 141.733 134.448 141.939 134.175C142.145 133.9 142.418 133.699 142.76 133.573C143.118 133.445 143.473 133.427 143.824 133.518C144.172 133.608 144.444 133.796 144.642 134.082L144.682 134.068C144.637 133.808 144.662 133.551 144.756 133.296C144.848 133.042 144.994 132.813 145.196 132.608C145.395 132.404 145.637 132.25 145.921 132.144C146.286 132.015 146.647 131.996 147.003 132.088C147.356 132.178 147.676 132.366 147.963 132.652C148.247 132.936 148.471 133.303 148.634 133.753ZM147.91 134.016C147.799 133.711 147.655 133.465 147.476 133.279C147.296 133.093 147.095 132.973 146.871 132.917C146.648 132.862 146.415 132.877 146.173 132.962C145.919 133.056 145.718 133.203 145.569 133.404C145.421 133.604 145.331 133.836 145.301 134.101C145.269 134.363 145.305 134.636 145.408 134.922C145.512 135.209 145.661 135.446 145.855 135.631C146.048 135.814 146.266 135.935 146.508 135.994C146.749 136.051 146.997 136.032 147.251 135.937C147.493 135.852 147.682 135.718 147.819 135.534C147.956 135.348 148.033 135.125 148.05 134.866C148.068 134.606 148.021 134.323 147.91 134.016ZM144.71 135.175C144.623 134.933 144.497 134.737 144.333 134.585C144.168 134.431 143.979 134.332 143.767 134.287C143.555 134.243 143.332 134.261 143.099 134.343C142.871 134.428 142.692 134.554 142.561 134.721C142.428 134.888 142.349 135.081 142.325 135.301C142.298 135.522 142.33 135.756 142.419 136.004C142.511 136.257 142.638 136.46 142.801 136.615C142.961 136.77 143.146 136.868 143.354 136.909C143.56 136.951 143.777 136.93 144.005 136.845C144.238 136.763 144.422 136.638 144.558 136.47C144.692 136.299 144.773 136.102 144.802 135.879C144.83 135.655 144.799 135.42 144.71 135.175ZM139.33 130.394L148.188 129.643L148.445 130.354L139.587 131.105L139.33 130.394ZM146.058 126.93L145.466 127.145L142.224 125.802C141.844 125.644 141.518 125.519 141.246 125.426C140.972 125.334 140.727 125.282 140.511 125.268C140.292 125.253 140.08 125.283 139.873 125.358C139.636 125.443 139.452 125.575 139.32 125.752C139.187 125.926 139.109 126.129 139.085 126.358C139.062 126.588 139.094 126.824 139.182 127.068C139.276 127.327 139.412 127.533 139.589 127.687C139.763 127.84 139.965 127.935 140.194 127.971C140.423 128.005 140.665 127.975 140.922 127.882L141.203 128.659C140.808 128.802 140.429 128.837 140.064 128.763C139.7 128.689 139.377 128.525 139.097 128.271C138.816 128.016 138.604 127.692 138.462 127.299C138.318 126.904 138.275 126.524 138.331 126.158C138.388 125.793 138.526 125.472 138.746 125.196C138.966 124.92 139.25 124.72 139.597 124.594C139.845 124.504 140.103 124.461 140.373 124.465C140.64 124.468 140.958 124.527 141.327 124.641C141.693 124.754 142.153 124.929 142.708 125.165L144.876 126.092L144.929 126.073L143.793 122.94L144.518 122.677L146.058 126.93ZM143.354 119.178C143.494 119.564 143.543 119.94 143.502 120.305C143.46 120.67 143.339 120.994 143.139 121.278C142.939 121.561 142.671 121.774 142.335 121.915L142.049 121.125C142.343 120.984 142.545 120.754 142.656 120.436C142.763 120.117 142.755 119.785 142.63 119.44C142.53 119.164 142.376 118.941 142.169 118.773C141.961 118.603 141.721 118.497 141.451 118.456C141.177 118.414 140.897 118.445 140.609 118.549C140.315 118.655 140.076 118.815 139.893 119.028C139.706 119.239 139.587 119.481 139.534 119.754C139.481 120.026 139.506 120.306 139.608 120.595C139.68 120.802 139.789 121.002 139.933 121.195C140.076 121.389 140.223 121.539 140.374 121.642L140.559 122.439L137.093 123.233L135.824 119.731L136.549 119.469L137.569 122.286L139.643 121.803L139.629 121.764C139.469 121.665 139.315 121.525 139.167 121.342C139.019 121.16 138.904 120.956 138.823 120.73C138.673 120.317 138.639 119.914 138.719 119.52C138.797 119.124 138.973 118.773 139.246 118.465C139.518 118.156 139.873 117.922 140.31 117.764C140.74 117.608 141.159 117.565 141.567 117.636C141.972 117.705 142.333 117.872 142.65 118.137C142.964 118.403 143.199 118.75 143.354 119.178Z" fill="white"/>
<path d="M150.203 163.58L152.538 161.741L152.526 161.707L149.556 161.792L149.312 161.121L153.114 161.088L153.387 161.842L150.446 164.249L150.203 163.58ZM152.508 159.417L152.744 160.068L148.944 160.103L148.671 159.349L151.611 156.94L151.847 157.591L149.494 159.462L149.503 159.489L152.508 159.417ZM151.179 159.874L150.535 158.097L151.025 157.919L151.669 159.696L151.179 159.874ZM151.45 156.496L148.079 157.717L147.858 157.106L150.717 156.071L150.179 154.586L150.691 154.401L151.45 156.496ZM146.907 154.481L150.278 153.26L150.499 153.871L147.128 155.092L146.907 154.481ZM149.625 151.457L150.038 152.599L146.668 153.82L146.246 152.655C146.124 152.32 146.088 152.008 146.136 151.719C146.182 151.429 146.308 151.174 146.512 150.953C146.716 150.733 146.993 150.559 147.343 150.432C147.695 150.305 148.02 150.261 148.32 150.3C148.619 150.338 148.88 150.455 149.104 150.651C149.327 150.846 149.501 151.114 149.625 151.457ZM149.289 152.18L149.107 151.678C149.022 151.443 148.908 151.262 148.766 151.137C148.622 151.011 148.451 150.94 148.251 150.923C148.05 150.906 147.821 150.945 147.563 151.038C147.305 151.131 147.105 151.248 146.964 151.389C146.821 151.53 146.736 151.693 146.707 151.879C146.677 152.063 146.704 152.27 146.787 152.498L146.975 153.018L149.289 152.18ZM156.573 161.95L156.061 162.135L155.087 159.446L155.599 159.26L155.977 160.302L158.835 159.267L159.055 159.872L156.196 160.908L156.573 161.95ZM158.27 157.706L154.899 158.927L154.678 158.317L156.105 157.8L155.539 156.238L154.113 156.755L153.891 156.143L157.261 154.922L157.483 155.534L156.051 156.053L156.617 157.615L158.049 157.096L158.27 157.706ZM157.021 154.258L153.65 155.479L153.192 154.215C153.099 153.956 153.065 153.722 153.091 153.514C153.117 153.305 153.195 153.126 153.325 152.977C153.453 152.827 153.625 152.714 153.84 152.636C154.056 152.558 154.26 152.536 154.453 152.57C154.644 152.604 154.815 152.694 154.966 152.84C155.116 152.987 155.238 153.19 155.332 153.449L155.658 154.349L155.151 154.533L154.854 153.715C154.8 153.563 154.734 153.447 154.657 153.366C154.579 153.285 154.492 153.236 154.394 153.219C154.294 153.202 154.185 153.215 154.065 153.258C153.946 153.301 153.852 153.362 153.785 153.44C153.716 153.518 153.678 153.613 153.669 153.726C153.659 153.838 153.681 153.971 153.736 154.124L153.939 154.683L156.8 153.647L157.021 154.258ZM154.863 153.07L156.088 151.682L156.335 152.363L155.104 153.736L154.863 153.07ZM151.789 150.34L151.567 149.729L153.77 148.931C154.011 148.844 154.244 148.824 154.468 148.872C154.693 148.918 154.893 149.026 155.071 149.193C155.247 149.362 155.385 149.583 155.485 149.857C155.584 150.133 155.62 150.391 155.593 150.633C155.564 150.876 155.478 151.087 155.336 151.266C155.194 151.446 155.002 151.579 154.76 151.667L152.558 152.464L152.337 151.854L154.488 151.074C154.629 151.024 154.743 150.948 154.83 150.846C154.917 150.744 154.971 150.625 154.993 150.489C155.014 150.354 154.996 150.209 154.94 150.054C154.884 149.9 154.804 149.777 154.702 149.686C154.598 149.595 154.48 149.538 154.348 149.517C154.216 149.495 154.08 149.509 153.94 149.56L151.789 150.34Z" fill="white"/>
<path d="M184.16 197.766L183.853 196.918L187.171 195.716C187.476 195.608 187.761 195.577 188.027 195.625C188.291 195.674 188.524 195.791 188.725 195.977C188.924 196.162 189.078 196.406 189.188 196.709C189.288 196.985 189.329 197.252 189.311 197.509C189.291 197.764 189.206 197.992 189.058 198.192C188.91 198.392 188.69 198.544 188.4 198.649L188.092 197.799C188.219 197.751 188.319 197.684 188.391 197.597C188.464 197.508 188.507 197.406 188.521 197.292C188.535 197.177 188.519 197.057 188.473 196.931C188.424 196.794 188.354 196.688 188.262 196.614C188.169 196.54 188.057 196.499 187.926 196.491C187.794 196.481 187.644 196.506 187.478 196.564L184.16 197.766ZM188.016 193.675L188.347 194.588L183.026 194.636L182.644 193.581L186.76 190.208L187.091 191.12L183.796 193.739L183.809 193.776L188.016 193.675ZM186.155 194.316L185.254 191.827L185.94 191.579L186.842 194.067L186.155 194.316ZM185.956 187.987L186.535 189.586L181.816 191.296L181.225 189.664C181.055 189.196 181.004 188.759 181.071 188.354C181.136 187.948 181.312 187.591 181.598 187.282C181.884 186.974 182.272 186.731 182.762 186.553C183.254 186.375 183.709 186.313 184.129 186.368C184.548 186.422 184.914 186.585 185.227 186.859C185.539 187.132 185.782 187.508 185.956 187.987ZM185.486 188.999L185.231 188.297C185.112 187.968 184.953 187.715 184.753 187.539C184.552 187.363 184.312 187.264 184.032 187.24C183.751 187.217 183.43 187.27 183.069 187.401C182.708 187.532 182.429 187.696 182.231 187.892C182.031 188.09 181.911 188.318 181.872 188.578C181.83 188.836 181.867 189.125 181.982 189.445L182.246 190.173L185.486 188.999ZM179.803 185.739L184.522 184.03L184.832 184.885L180.113 186.594L179.803 185.739ZM179.239 184.182L182.509 181.609L182.491 181.56L178.333 181.68L177.992 180.74L183.314 180.694L183.696 181.749L179.579 185.12L179.239 184.182ZM177.552 175.474C177.359 175.569 177.235 175.716 177.181 175.916C177.126 176.115 177.145 176.341 177.236 176.595C177.301 176.773 177.383 176.916 177.483 177.024C177.583 177.132 177.691 177.203 177.808 177.238C177.925 177.272 178.042 177.268 178.161 177.227C178.26 177.191 178.337 177.138 178.393 177.067C178.448 176.995 178.487 176.911 178.509 176.814C178.53 176.718 178.54 176.616 178.54 176.509C178.539 176.401 178.533 176.295 178.521 176.19L178.471 175.707C178.448 175.514 178.442 175.322 178.453 175.132C178.463 174.941 178.499 174.76 178.559 174.591C178.619 174.42 178.711 174.268 178.835 174.136C178.959 174.005 179.124 173.902 179.328 173.828C179.604 173.727 179.873 173.71 180.135 173.775C180.395 173.841 180.633 173.986 180.848 174.21C181.061 174.434 181.236 174.734 181.373 175.112C181.506 175.479 181.564 175.819 181.549 176.13C181.532 176.44 181.443 176.711 181.28 176.942C181.116 177.171 180.88 177.349 180.571 177.475L180.266 176.634C180.426 176.562 180.544 176.462 180.621 176.333C180.698 176.205 180.737 176.059 180.739 175.897C180.741 175.733 180.709 175.562 180.645 175.384C180.577 175.198 180.491 175.045 180.385 174.925C180.277 174.804 180.158 174.722 180.03 174.679C179.899 174.635 179.766 174.638 179.631 174.685C179.508 174.731 179.42 174.804 179.366 174.903C179.31 175.004 179.278 175.127 179.271 175.274C179.261 175.42 179.265 175.585 179.283 175.77L179.34 176.357C179.381 176.782 179.34 177.144 179.22 177.443C179.096 177.741 178.866 177.952 178.528 178.074C178.25 178.175 177.979 178.188 177.716 178.113C177.452 178.036 177.215 177.889 177.005 177.669C176.794 177.45 176.628 177.176 176.509 176.845C176.387 176.511 176.339 176.196 176.365 175.902C176.388 175.607 176.477 175.35 176.63 175.131C176.782 174.912 176.99 174.753 177.254 174.652L177.552 175.474ZM175.348 173.44L180.067 171.731L180.377 172.586L175.658 174.295L175.348 173.44ZM173.608 168.637L178.327 166.927L178.602 167.688L176.194 171.075L176.208 171.115L179.422 169.95L179.732 170.805L175.013 172.514L174.736 171.749L177.148 168.363L177.133 168.322L173.916 169.487L173.608 168.637ZM173.632 163.998C173.522 164.081 173.43 164.175 173.356 164.278C173.28 164.38 173.224 164.491 173.187 164.61C173.15 164.728 173.135 164.853 173.143 164.986C173.15 165.119 173.179 165.256 173.23 165.398C173.322 165.651 173.467 165.854 173.666 166.006C173.866 166.158 174.11 166.246 174.398 166.27C174.684 166.293 175.004 166.24 175.358 166.112C175.714 165.983 175.995 165.818 176.202 165.616C176.409 165.415 176.541 165.19 176.597 164.944C176.652 164.698 176.632 164.443 176.536 164.179C176.45 163.939 176.328 163.749 176.173 163.607C176.017 163.464 175.837 163.375 175.633 163.341C175.428 163.307 175.211 163.332 174.983 163.415L174.942 163.211L175.406 164.492L174.738 164.734L174.045 162.819L174.611 162.614C175.015 162.467 175.396 162.427 175.753 162.492C176.111 162.557 176.424 162.711 176.692 162.955C176.96 163.198 177.164 163.515 177.305 163.906C177.463 164.34 177.504 164.757 177.428 165.157C177.349 165.555 177.163 165.912 176.869 166.227C176.573 166.541 176.176 166.788 175.678 166.969C175.297 167.107 174.937 167.176 174.599 167.177C174.26 167.176 173.951 167.117 173.671 166.997C173.39 166.878 173.147 166.707 172.943 166.484C172.737 166.261 172.578 165.996 172.467 165.687C172.372 165.426 172.322 165.168 172.317 164.915C172.311 164.662 172.346 164.422 172.422 164.197C172.498 163.969 172.611 163.764 172.762 163.581C172.913 163.398 173.098 163.246 173.317 163.127L173.632 163.998ZM176.215 161.098L171.496 162.807L171.187 161.952L173.184 161.229L172.392 159.042L170.395 159.766L170.084 158.908L174.803 157.199L175.114 158.056L173.109 158.782L173.901 160.969L175.906 160.243L176.215 161.098Z" fill="white"/>
<g clip-path="url(#clip2_79_1166)">
<path d="M72.3895 62.1952C72.7628 62.06 72.9558 61.6477 72.8206 61.2745C72.6854 60.9012 72.2732 60.7082 71.8999 60.8434C71.5266 60.9786 71.3336 61.3908 71.4688 61.7641C71.604 62.1374 72.0163 62.3304 72.3895 62.1952Z" fill="white"/>
<path d="M70.9205 58.1399C70.0458 58.4567 69.3279 59.1005 68.918 59.9357C68.8341 60.107 68.8216 60.3047 68.8834 60.4852C68.9452 60.6657 69.0762 60.8142 69.2475 60.8982C69.4189 60.9821 69.6165 60.9945 69.797 60.9327C69.9775 60.8709 70.1261 60.74 70.21 60.5686C70.4665 60.0781 70.8975 59.7015 71.4179 59.513C71.9384 59.3244 72.5106 59.3377 73.0217 59.5501C73.1959 59.628 73.3939 59.6334 73.5721 59.5653C73.7503 59.4971 73.8941 59.361 73.972 59.1868C74.0498 59.0126 74.0552 58.8146 73.9871 58.6364C73.919 58.4582 73.7828 58.3144 73.6086 58.2365C72.7589 57.8576 71.7953 57.823 70.9205 58.1399ZM69.6964 54.7605C68.8802 55.0567 68.1321 55.5142 67.4965 56.1056C66.8609 56.6971 66.3508 57.4105 65.9967 58.2032C65.9586 58.2908 65.9382 58.385 65.9366 58.4805C65.9349 58.576 65.9521 58.6708 65.9871 58.7597C66.0222 58.8485 66.0743 58.9296 66.1407 58.9983C66.207 59.0669 66.2863 59.1219 66.3738 59.1599C66.5507 59.2368 66.7509 59.2402 66.9303 59.1695C67.0192 59.1345 67.1002 59.0823 67.1689 59.0159C67.2376 58.9496 67.2925 58.8704 67.3306 58.7828C67.606 58.165 68.0032 57.6091 68.4984 57.1483C68.9936 56.6875 69.5766 56.3313 70.2125 56.101C70.8485 55.8706 71.5244 55.7708 72.1998 55.8075C72.8752 55.8443 73.5363 56.0168 74.1435 56.3149C74.2292 56.3561 74.3223 56.3798 74.4172 56.3848C74.5122 56.3898 74.6072 56.3758 74.6968 56.3438C74.8287 56.2954 74.9435 56.2095 75.0271 56.0966C75.1107 55.9837 75.1594 55.8488 75.1672 55.7085C75.1749 55.5683 75.1414 55.4288 75.0708 55.3074C75.0001 55.1859 74.8954 55.0879 74.7697 55.0253C73.9857 54.6411 73.132 54.4196 72.2601 54.3741C71.3882 54.3286 70.5161 54.46 69.6964 54.7605Z" fill="white"/>
<path d="M76.004 51.6575C73.6239 50.5949 70.9243 50.4972 68.4736 51.3849C66.0229 52.2727 64.0122 54.0766 62.8648 56.417C62.7967 56.5852 62.7947 56.7729 62.8592 56.9424C62.9237 57.112 63.0499 57.2509 63.2125 57.3313C63.3751 57.4117 63.5622 57.4277 63.7361 57.3759C63.91 57.3242 64.0579 57.2086 64.1501 57.0524C65.1329 55.0427 66.858 53.4935 68.9614 52.7315C71.0648 51.9696 73.3819 52.0546 75.4238 52.9686C75.5929 53.044 75.7845 53.0513 75.9587 52.9889C76.0497 52.9556 76.1329 52.9043 76.2035 52.838C76.2741 52.7717 76.3305 52.6918 76.3695 52.6031C76.4459 52.4292 76.4503 52.2321 76.3818 52.0549C76.3133 51.8777 76.1775 51.7348 76.004 51.6575Z" fill="white"/>
</g>
<path d="M38.5155 102.228L33.1224 104.181L32.6503 102.878L34.8148 102.094L34.0451 99.9685L31.8805 100.753L31.4092 99.4518L36.8023 97.4982L37.2735 98.799L35.1063 99.5841L35.8761 101.709L38.0433 100.924L38.5155 102.228ZM35.784 94.6871L36.5061 96.6805L31.1131 98.6341L30.3919 96.6433C30.1929 96.0938 30.1295 95.5816 30.2017 95.1066C30.2715 94.6305 30.4692 94.2114 30.7947 93.8492C31.1185 93.4877 31.5604 93.2054 32.1205 93.0026C32.6822 92.7991 33.2041 92.7322 33.6861 92.8018C34.1675 92.8698 34.5883 93.0639 34.9486 93.3841C35.3071 93.7051 35.5856 94.1394 35.784 94.6871ZM34.9227 95.7796L34.6909 95.1397C34.5815 94.8377 34.438 94.6008 34.2605 94.4287C34.0807 94.2556 33.8554 94.1574 33.5849 94.1343C33.312 94.11 32.9816 94.1682 32.5936 94.3087C32.2056 94.4492 31.9164 94.6156 31.7258 94.8077C31.5335 95.0005 31.4249 95.2216 31.4 95.4709C31.3728 95.7191 31.4151 95.9976 31.527 96.3066L31.7521 96.9281L34.9227 95.7796ZM34.5439 91.2638L29.1509 93.2174L27.8174 89.536L28.876 89.1525L29.7373 91.5304L30.8433 91.1298L30.0668 88.9863L31.1281 88.6019L31.9045 90.7454L34.0718 89.9603L34.5439 91.2638ZM27.7602 83.2765L28.2372 84.5932C28.1084 84.6597 27.9994 84.7399 27.9103 84.8338C27.8211 84.9276 27.7542 85.0333 27.7094 85.1508C27.6645 85.2683 27.6442 85.3958 27.6483 85.5333C27.6501 85.6697 27.6777 85.8117 27.7311 85.9591C27.8258 86.2207 27.9716 86.4231 28.1685 86.5663C28.3647 86.7077 28.6023 86.7854 28.8815 86.7995C29.16 86.8118 29.4713 86.7556 29.8154 86.631C30.1735 86.5013 30.4553 86.3416 30.6607 86.152C30.8636 85.9613 30.9929 85.7507 31.0484 85.5201C31.1014 85.2883 31.0816 85.0443 30.9887 84.788C30.9366 84.6441 30.8708 84.52 30.7913 84.4157C30.7112 84.3097 30.6198 84.2246 30.5172 84.1605C30.4121 84.0953 30.2982 84.0522 30.1754 84.0311C30.0502 84.0089 29.9185 84.01 29.7803 84.0342L29.3113 82.7147C29.5583 82.651 29.8186 82.6352 30.0923 82.6671C30.3654 82.6973 30.6339 82.7778 30.8977 82.9086C31.1598 83.04 31.3992 83.2293 31.6158 83.4766C31.8318 83.722 32.0069 84.0299 32.1411 84.4004C32.3179 84.8884 32.3692 85.3643 32.2949 85.8281C32.2182 86.2908 32.014 86.7084 31.6822 87.0808C31.3504 87.4531 30.8887 87.7465 30.2971 87.9608C29.7037 88.1758 29.1598 88.2447 28.6652 88.1677C28.1706 88.0907 27.7462 87.8978 27.3922 87.5892C27.0381 87.2806 26.7742 86.8866 26.6006 86.4074C26.4823 86.0808 26.4186 85.7623 26.4094 85.4519C26.3985 85.1421 26.4418 84.8504 26.5392 84.5768C26.635 84.3038 26.7845 84.056 26.9879 83.8334C27.1912 83.6108 27.4487 83.4252 27.7602 83.2765ZM30.3521 79.6917L24.959 81.6453L24.1444 79.3964C23.9981 78.9927 23.9328 78.6341 23.9483 78.3206C23.9632 78.0054 24.0486 77.7421 24.2044 77.5308C24.3595 77.3177 24.5723 77.1622 24.8426 77.0643C25.048 76.9899 25.2471 76.9664 25.4397 76.9939C25.6307 77.0221 25.8061 77.0926 25.9662 77.2054C26.1262 77.3182 26.2632 77.4662 26.3772 77.6493L26.4298 77.6302C26.3615 77.4087 26.3475 77.1864 26.3878 76.9633C26.4275 76.7384 26.5227 76.5351 26.6733 76.3535C26.8222 76.1724 27.0266 76.0349 27.2864 75.9407C27.5761 75.8358 27.8617 75.8157 28.1434 75.8805C28.4232 75.946 28.6796 76.0944 28.9124 76.3258C29.1434 76.5579 29.3311 76.8732 29.4754 77.2717L30.3521 79.6917ZM28.8292 78.7688L28.5373 77.963C28.4349 77.6804 28.306 77.4918 28.1506 77.3971C27.9945 77.3007 27.8208 77.2872 27.6295 77.3565C27.4908 77.4068 27.3832 77.4825 27.3066 77.5837C27.2283 77.6855 27.1836 77.806 27.1724 77.9451C27.1595 78.0848 27.1832 78.2381 27.2437 78.4048L27.5441 79.2343L28.8292 78.7688ZM26.7041 79.5386L26.4427 78.8171C26.3912 78.6749 26.3217 78.5571 26.2343 78.4637C26.1468 78.3702 26.0472 78.309 25.9354 78.28C25.823 78.2492 25.7036 78.2567 25.5772 78.3025C25.3963 78.368 25.2773 78.4836 25.2202 78.6493C25.163 78.815 25.1739 79.0066 25.2527 79.2243L25.5217 79.9669L26.7041 79.5386ZM28.1457 73.6009L28.6532 75.0018L22.601 75.1357L21.9724 73.4004L26.7063 69.6272L27.2137 71.0281L23.6383 73.7561L23.6536 73.7982L28.1457 73.6009ZM26.091 74.5567L25.0302 71.6284L26.0204 71.2698L27.0811 74.198L26.091 74.5567ZM19.4403 66.4103L24.8333 64.4567L25.2339 65.5627L22.8988 68.8363L22.9112 68.8706L26.0238 67.7431L26.4959 69.0466L21.1029 71.0001L20.6966 69.8783L23.035 66.6303L23.0188 66.5855L19.9115 67.7111L19.4403 66.4103ZM24.5364 63.6371L19.1434 65.5906L18.6712 64.2872L20.9517 63.4611L20.9259 63.39L17.9997 62.4333L17.4435 60.8981L20.5429 61.938L22.8242 58.9103L23.3889 60.4692L21.7555 62.5801L22.6027 62.863L24.0642 62.3336L24.5364 63.6371Z" fill="white"/>
<g clip-path="url(#clip3_79_1166)">
<path d="M35.0806 107.188L31.4309 108.511C31.2875 108.563 31.1706 108.669 31.1059 108.807C31.0412 108.946 31.0341 109.104 31.086 109.247L32.4081 112.897M32.9957 114.519L34.3178 118.169C34.3698 118.312 34.4765 118.429 34.6147 118.494C34.7528 118.558 34.911 118.566 35.0544 118.514L38.7041 117.192M40.3263 116.604L43.976 115.282C44.1194 115.23 44.2363 115.123 44.301 114.985C44.3657 114.847 44.3728 114.689 44.3209 114.545L42.9988 110.896M42.4112 109.273L41.0891 105.624C41.0371 105.48 40.9304 105.363 40.7922 105.299C40.6541 105.234 40.4959 105.227 40.3525 105.279L36.7028 106.601M35.4937 110.862L36.6689 114.106L39.9132 112.931L38.738 109.687L35.4937 110.862Z" stroke="white" stroke-width="2.05389" stroke-linecap="round" stroke-linejoin="round"/>
</g>
<rect x="33.0681" y="122.619" width="65.3137" height="16.0203" transform="rotate(-109.912 33.0681 122.619)" stroke="white" stroke-width="0.7394"/>
<path d="M83.392 240.936C83.3477 241.153 83.3229 241.386 83.3177 241.634C83.3106 241.877 83.3389 242.101 83.4024 242.308C83.4566 242.473 83.5249 242.607 83.6074 242.712C83.6832 242.813 83.7676 242.891 83.8605 242.947C83.9534 243.003 84.0491 243.035 84.1474 243.044C84.2458 243.054 84.3413 243.047 84.4338 243.025C84.5857 242.981 84.7015 242.891 84.7812 242.756C84.8609 242.621 84.919 242.457 84.9556 242.265C84.9855 242.07 85.0102 241.868 85.0298 241.66C85.0436 241.42 85.0807 241.183 85.1412 240.948C85.2017 240.714 85.3136 240.505 85.4769 240.323C85.6384 240.136 85.8852 239.999 86.2172 239.912C86.4123 239.864 86.6173 239.851 86.8325 239.874C87.0476 239.897 87.2564 239.964 87.4589 240.075C87.6596 240.181 87.8415 240.336 88.0048 240.54C88.1681 240.744 88.2978 241.001 88.394 241.313C88.4665 241.544 88.514 241.776 88.5367 242.008C88.5526 242.237 88.5467 242.46 88.519 242.677C88.4864 242.896 88.4311 243.106 88.3531 243.308L87.6041 243.093C87.6636 242.948 87.7085 242.786 87.7388 242.608C87.7691 242.429 87.7819 242.248 87.7772 242.065C87.7657 241.879 87.7363 241.705 87.6889 241.544C87.624 241.349 87.5308 241.184 87.4092 241.049C87.2876 240.914 87.1471 240.82 86.9877 240.766C86.8216 240.708 86.6518 240.703 86.4783 240.749C86.3215 240.795 86.2014 240.88 86.1182 241.005C86.0331 241.126 85.9712 241.271 85.9323 241.442C85.8917 241.607 85.863 241.783 85.8461 241.968C85.8342 242.151 85.8133 242.34 85.7834 242.536C85.7517 242.726 85.7008 242.91 85.6305 243.086C85.5602 243.263 85.4544 243.418 85.3132 243.553C85.172 243.688 84.9832 243.785 84.7468 243.842C84.4444 243.918 84.1583 243.916 83.8884 243.835C83.6185 243.753 83.3835 243.606 83.1834 243.394C82.9815 243.176 82.8233 242.909 82.7087 242.593C82.6358 242.345 82.5916 242.115 82.5761 241.902C82.5539 241.687 82.5537 241.486 82.5755 241.299C82.5973 241.112 82.631 240.935 82.6766 240.767L83.392 240.936ZM87.2338 238.25L87.5159 239.028L80.8106 238.001L80.7944 237.957L85.7833 234.245L86.1137 235.157L82.1981 237.918L81.6043 237.437L87.2338 238.25ZM84.8865 238.068L84.1907 236.147L84.8085 235.722L85.6842 238.14L84.8865 238.068ZM85.1569 232.516L85.4336 233.28L79.6249 234.612L79.6222 234.605L82.8216 230.77L82.8683 231.13L77.6748 229.229L77.6721 229.221L83.4808 227.889L83.7655 228.675L79.8245 229.582L80.2323 229.435L83.8862 230.745L83.8916 230.76L81.6882 233.454L81.253 233.41L85.1569 232.516ZM76.7739 226.186C76.6807 225.929 76.6303 225.681 76.6225 225.444C76.6097 225.208 76.6408 224.992 76.7156 224.798C76.7886 224.598 76.9014 224.423 77.0538 224.272C77.2063 224.122 77.4037 224.003 77.6459 223.915C77.8684 223.835 78.1101 223.792 78.3711 223.787C78.6254 223.779 78.8809 223.82 79.1377 223.912C79.3879 224 79.6197 224.154 79.8332 224.373C80.045 224.587 80.218 224.879 80.3524 225.25L80.629 226.014L82.6329 225.548L82.9284 226.364L77.3084 227.661L76.7739 226.186ZM79.5644 225.46C79.4838 225.238 79.3805 225.068 79.2544 224.952C79.1216 224.832 78.9822 224.748 78.8362 224.7C78.6854 224.654 78.5419 224.637 78.4057 224.647C78.2678 224.652 78.1519 224.672 78.058 224.706C77.9294 224.752 77.8116 224.828 77.7046 224.934C77.5958 225.035 77.5235 225.168 77.4878 225.332C77.4454 225.492 77.4654 225.686 77.5477 225.914L77.8164 226.655L79.8303 226.194L79.5644 225.46ZM75.7214 223.28L75.4339 222.487L80.2606 221.384L79.2828 218.685L80.0815 218.505L81.3413 221.983L75.7214 223.28ZM74.0714 218.725L72.7901 215.188L73.5638 215.009L74.5497 217.73L76.1916 217.353L75.3132 214.928L76.0971 214.754L76.9728 217.171L78.6073 216.797L77.5838 213.972L78.3751 213.794L79.6913 217.428L74.0714 218.725Z" fill="white"/>
</g>
<g opacity="0.9">
<g filter="url(#filter1_b_79_1166)">
<rect x="82" y="195.725" width="218.862" height="139.993" rx="12.3233" transform="rotate(-63.4168 82 195.725)" fill="#4E4E4E"/>
<rect x="81.6693" y="195.836" width="219.355" height="140.486" rx="12.5698" transform="rotate(-63.4168 81.6693 195.836)" stroke="white" stroke-width="0.492933"/>
</g>
<path d="M276.875 71.5249C276.358 72.0136 275.933 72.5907 275.619 73.229C274.59 75.2861 274.899 77.2576 276.381 78.0123C277.468 78.572 278.607 77.8349 279.368 77.2268C280.149 76.6034 280.521 76.4505 280.856 76.621C281.363 76.8816 281.273 77.6402 280.974 78.2381C280.563 79.0597 280.224 79.4512 279.592 79.9981L279.344 80.1941L280.911 81.343C281.369 80.9471 281.999 80.1352 282.48 79.212C283.575 77.025 283.26 75.0799 281.686 74.2712C280.822 73.8164 279.879 74.052 278.738 74.9698C278.022 75.5168 277.561 75.8471 277.203 75.6676C276.885 75.5087 276.738 74.9544 277.14 74.1508C277.395 73.6095 277.761 73.1282 278.215 72.7386L278.398 72.5888L276.889 71.4689L276.875 71.5249ZM279.363 66.0945L278.559 67.7016C278.308 68.2018 278.257 68.6474 278.644 69.1143L284.1 75.709L285.194 73.522L284.265 72.5103L285.603 69.8424C285.903 69.9139 286.877 70.1598 286.877 70.1598L287.842 68.2312L279.363 66.0945ZM272.452 79.7451L273.495 77.6609L280.482 82.7876L279.44 84.8692L272.449 79.7438L272.452 79.7451ZM274.015 87.1429L275.184 87.4577L270.996 82.8155L272.1 80.6078L278.085 87.7036L276.983 89.9061L269.625 88.4751C269.504 88.4509 269.378 88.4737 269.273 88.5386C268.613 89.0197 268.015 89.5798 267.492 90.2066L267.345 90.0978L269.024 86.7434C269.269 86.2972 269.596 86.0022 270.143 86.1233L274.018 87.1462L274.014 87.1442L274.015 87.1429ZM283.002 71.1307L281.28 69.2308C281.298 69.2527 280.925 68.8392 280.691 68.5903L281.422 68.7776L283.867 69.3982L283 71.1314L283.001 71.132L283.002 71.1307Z" fill="white"/>
<path d="M171.84 220.351L171.135 219.999L169.563 215.904C169.379 215.424 169.212 215.021 169.062 214.694C168.91 214.367 168.747 214.099 168.573 213.892C168.399 213.68 168.189 213.513 167.943 213.391C167.661 213.25 167.384 213.195 167.11 213.228C166.837 213.258 166.586 213.361 166.358 213.537C166.13 213.713 165.943 213.946 165.798 214.235C165.644 214.543 165.573 214.844 165.586 215.138C165.598 215.427 165.686 215.691 165.85 215.93C166.016 216.166 166.251 216.361 166.557 216.514L166.094 217.437C165.625 217.202 165.267 216.888 165.02 216.494C164.774 216.1 164.645 215.666 164.633 215.194C164.623 214.719 164.735 214.248 164.968 213.781C165.203 213.312 165.511 212.945 165.891 212.682C166.27 212.418 166.68 212.268 167.12 212.23C167.559 212.192 167.985 212.276 168.398 212.483C168.692 212.63 168.954 212.828 169.182 213.076C169.409 213.32 169.63 213.659 169.843 214.092C170.056 214.521 170.294 215.089 170.557 215.795L171.582 218.559L171.644 218.59L173.509 214.864L174.37 215.295L171.84 220.351ZM176.983 210.347C176.753 210.806 176.455 211.174 176.088 211.451C175.721 211.727 175.323 211.897 174.894 211.959C174.465 212.022 174.041 211.962 173.624 211.779L174.094 210.839C174.475 210.984 174.857 210.97 175.241 210.797C175.623 210.619 175.917 210.326 176.122 209.916C176.286 209.588 176.355 209.257 176.329 208.924C176.305 208.589 176.195 208.281 175.999 208C175.802 207.716 175.533 207.488 175.191 207.317C174.841 207.142 174.491 207.063 174.14 207.08C173.788 207.093 173.465 207.193 173.173 207.379C172.881 207.566 172.648 207.829 172.474 208.169C172.349 208.413 172.261 208.684 172.21 208.982C172.156 209.278 172.148 209.539 172.184 209.766L171.62 210.619L167.918 208.16L170.002 203.996L170.863 204.427L169.186 207.777L171.409 209.242L171.433 209.195C171.384 208.965 171.379 208.705 171.417 208.414C171.455 208.123 171.541 207.843 171.676 207.574C171.921 207.084 172.257 206.706 172.684 206.439C173.11 206.17 173.579 206.026 174.093 206.009C174.609 205.99 175.126 206.11 175.645 206.37C176.157 206.626 176.556 206.969 176.843 207.4C177.128 207.827 177.287 208.298 177.32 208.813C177.35 209.327 177.237 209.838 176.983 210.347ZM180.881 202.557C180.622 203.074 180.303 203.49 179.923 203.805C179.545 204.118 179.138 204.315 178.704 204.394C178.268 204.47 177.835 204.413 177.404 204.223L177.898 203.237C178.167 203.346 178.434 203.369 178.7 203.306C178.964 203.242 179.21 203.109 179.438 202.907C179.667 202.705 179.858 202.45 180.012 202.142C180.184 201.798 180.277 201.462 180.29 201.136C180.303 200.81 180.241 200.518 180.103 200.259C179.964 200.001 179.754 199.801 179.473 199.66C179.178 199.513 178.882 199.456 178.584 199.49C178.284 199.522 178 199.647 177.731 199.865C177.462 200.083 177.226 200.395 177.022 200.802L176.701 201.444L175.84 201.013L176.161 200.372C176.32 200.053 176.403 199.745 176.408 199.448C176.414 199.148 176.347 198.878 176.206 198.638C176.067 198.395 175.856 198.203 175.575 198.062C175.303 197.926 175.037 197.868 174.776 197.888C174.515 197.907 174.274 197.998 174.052 198.161C173.831 198.322 173.647 198.549 173.5 198.844C173.361 199.121 173.282 199.407 173.261 199.703C173.238 199.995 173.284 200.266 173.397 200.515C173.508 200.763 173.694 200.96 173.953 201.107L173.483 202.046C173.071 201.82 172.766 201.509 172.569 201.114C172.37 200.717 172.277 200.283 172.292 199.811C172.308 199.336 172.431 198.867 172.662 198.406C172.91 197.91 173.224 197.535 173.602 197.28C173.978 197.025 174.377 196.883 174.798 196.856C175.219 196.829 175.619 196.91 175.998 197.099C176.449 197.325 176.774 197.636 176.974 198.033C177.175 198.427 177.235 198.857 177.155 199.323L177.218 199.354C177.555 198.89 177.968 198.602 178.457 198.492C178.944 198.379 179.442 198.451 179.95 198.705C180.386 198.923 180.718 199.238 180.946 199.649C181.173 200.056 181.284 200.513 181.279 201.019C181.273 201.525 181.141 202.038 180.881 202.557ZM184.833 194.658C184.575 195.175 184.256 195.591 183.876 195.907C183.497 196.22 183.091 196.416 182.656 196.496C182.221 196.571 181.787 196.514 181.357 196.325L181.85 195.339C182.119 195.447 182.387 195.47 182.653 195.407C182.916 195.344 183.162 195.211 183.391 195.008C183.619 194.806 183.81 194.551 183.964 194.243C184.137 193.899 184.229 193.564 184.243 193.237C184.256 192.911 184.193 192.619 184.055 192.361C183.917 192.102 183.707 191.903 183.425 191.762C183.13 191.614 182.834 191.557 182.537 191.591C182.236 191.624 181.952 191.749 181.683 191.966C181.414 192.184 181.178 192.497 180.974 192.904L180.653 193.546L179.792 193.115L180.113 192.473C180.273 192.155 180.355 191.847 180.36 191.549C180.367 191.249 180.3 190.979 180.159 190.739C180.019 190.496 179.809 190.304 179.527 190.163C179.256 190.028 178.99 189.969 178.729 189.989C178.468 190.008 178.226 190.1 178.004 190.263C177.784 190.423 177.6 190.651 177.452 190.946C177.314 191.222 177.234 191.508 177.213 191.805C177.191 192.097 177.237 192.368 177.35 192.617C177.461 192.865 177.646 193.062 177.906 193.208L177.436 194.147C177.023 193.921 176.719 193.611 176.522 193.215C176.322 192.819 176.23 192.384 176.244 191.912C176.26 191.437 176.384 190.969 176.615 190.507C176.863 190.011 177.176 189.636 177.554 189.382C177.93 189.126 178.329 188.985 178.75 188.958C179.172 188.93 179.572 189.011 179.95 189.201C180.401 189.426 180.727 189.738 180.926 190.134C181.127 190.529 181.188 190.958 181.108 191.424L181.171 191.456C181.507 190.991 181.92 190.704 182.41 190.593C182.896 190.481 183.394 190.552 183.903 190.807C184.339 191.025 184.671 191.339 184.899 191.75C185.126 192.157 185.236 192.614 185.231 193.12C185.226 193.627 185.093 194.139 184.833 194.658ZM192.668 179.001C192.438 179.46 192.14 179.828 191.773 180.104C191.407 180.381 191.009 180.55 190.579 180.613C190.15 180.675 189.727 180.615 189.309 180.432L189.779 179.493C190.16 179.638 190.543 179.624 190.926 179.451C191.309 179.273 191.602 178.98 191.807 178.57C191.972 178.241 192.041 177.911 192.015 177.578C191.99 177.243 191.88 176.935 191.684 176.654C191.488 176.37 191.218 176.142 190.876 175.971C190.527 175.796 190.177 175.717 189.826 175.734C189.473 175.747 189.151 175.846 188.859 176.033C188.566 176.219 188.333 176.483 188.16 176.823C188.034 177.067 187.946 177.338 187.895 177.635C187.842 177.932 187.833 178.193 187.87 178.42L187.306 179.273L183.604 176.814L185.687 172.65L186.548 173.081L184.872 176.431L187.095 177.895L187.118 177.848C187.07 177.619 187.065 177.359 187.103 177.068C187.141 176.777 187.227 176.497 187.361 176.228C187.607 175.738 187.943 175.359 188.37 175.093C188.795 174.823 189.265 174.68 189.779 174.663C190.294 174.644 190.812 174.764 191.331 175.024C191.842 175.28 192.241 175.623 192.528 176.054C192.814 176.48 192.973 176.951 193.005 177.467C193.035 177.981 192.923 178.492 192.668 179.001ZM195.102 173.864L194.397 173.512L192.825 169.417C192.641 168.937 192.474 168.534 192.324 168.207C192.172 167.88 192.009 167.612 191.835 167.405C191.66 167.193 191.45 167.026 191.205 166.904C190.923 166.763 190.646 166.708 190.372 166.741C190.099 166.771 189.848 166.874 189.62 167.05C189.392 167.226 189.205 167.459 189.06 167.748C188.906 168.056 188.835 168.357 188.848 168.651C188.86 168.94 188.948 169.204 189.112 169.443C189.278 169.679 189.513 169.874 189.819 170.027L189.356 170.95C188.887 170.715 188.529 170.401 188.282 170.007C188.036 169.613 187.907 169.179 187.895 168.707C187.885 168.232 187.997 167.761 188.23 167.294C188.465 166.824 188.773 166.458 189.152 166.195C189.532 165.931 189.942 165.781 190.382 165.743C190.821 165.705 191.247 165.789 191.66 165.996C191.954 166.143 192.216 166.341 192.444 166.589C192.671 166.833 192.891 167.172 193.105 167.605C193.318 168.034 193.556 168.602 193.819 169.308L194.844 172.071L194.906 172.103L196.771 168.377L197.632 168.808L195.102 173.864ZM200.245 163.86C200.015 164.319 199.717 164.687 199.35 164.964C198.983 165.24 198.585 165.41 198.156 165.472C197.727 165.535 197.303 165.474 196.886 165.292L197.356 164.352C197.737 164.497 198.119 164.483 198.503 164.31C198.885 164.132 199.179 163.839 199.384 163.429C199.548 163.101 199.617 162.77 199.591 162.437C199.567 162.102 199.457 161.794 199.261 161.513C199.064 161.229 198.795 161.001 198.453 160.83C198.103 160.655 197.753 160.576 197.402 160.593C197.05 160.606 196.727 160.706 196.435 160.892C196.143 161.078 195.91 161.342 195.736 161.682C195.611 161.926 195.523 162.197 195.472 162.495C195.418 162.791 195.41 163.052 195.446 163.279L194.882 164.132L191.18 161.673L193.264 157.509L194.125 157.94L192.448 161.29L194.671 162.755L194.695 162.708C194.646 162.478 194.641 162.218 194.679 161.927C194.717 161.636 194.803 161.356 194.938 161.087C195.183 160.597 195.519 160.218 195.946 159.952C196.372 159.683 196.841 159.539 197.355 159.522C197.871 159.503 198.388 159.623 198.907 159.883C199.419 160.139 199.818 160.482 200.105 160.913C200.39 161.339 200.549 161.811 200.582 162.326C200.612 162.84 200.499 163.351 200.245 163.86ZM200.94 158.089L200.142 157.689L196.331 151.378L196.621 150.799L197.858 151.418L197.662 151.809L200.541 156.578L200.604 156.609L202.978 151.866L203.839 152.297L200.94 158.089ZM204.472 155.139L202.585 154.195L202.214 154.009L196.457 151.128L196.919 150.204L204.934 154.215L204.472 155.139ZM212.059 140.249C211.764 140.839 211.353 141.261 210.824 141.515C210.293 141.768 209.666 141.851 208.943 141.763C208.218 141.674 207.419 141.412 206.548 140.976C205.682 140.542 204.997 140.062 204.494 139.536C203.989 139.007 203.678 138.453 203.562 137.876C203.445 137.296 203.533 136.713 203.825 136.129C204.118 135.544 204.531 135.126 205.065 134.875C205.597 134.619 206.226 134.536 206.951 134.625C207.675 134.71 208.47 134.969 209.337 135.403C210.208 135.839 210.897 136.32 211.403 136.848C211.906 137.374 212.216 137.925 212.332 138.502C212.445 139.077 212.354 139.66 212.059 140.249ZM211.198 139.818C211.491 139.234 211.436 138.639 211.035 138.033C210.633 137.428 209.91 136.864 208.867 136.342C208.173 135.995 207.545 135.773 206.982 135.678C206.421 135.58 205.944 135.605 205.55 135.754C205.157 135.9 204.864 136.166 204.671 136.552C204.381 137.131 204.44 137.727 204.848 138.339C205.254 138.95 205.977 139.515 207.018 140.036C207.712 140.384 208.338 140.606 208.897 140.702C209.455 140.799 209.929 140.774 210.319 140.626C210.711 140.476 211.004 140.207 211.198 139.818ZM215.947 132.48C215.652 133.069 215.24 133.491 214.712 133.746C214.181 133.999 213.554 134.081 212.831 133.994C212.106 133.905 211.307 133.642 210.436 133.206C209.57 132.773 208.885 132.293 208.381 131.767C207.877 131.237 207.566 130.684 207.45 130.107C207.333 129.526 207.421 128.944 207.713 128.359C208.006 127.775 208.419 127.357 208.952 127.105C209.485 126.85 210.114 126.766 210.839 126.855C211.563 126.94 212.358 127.2 213.225 127.633C214.096 128.069 214.785 128.551 215.291 129.078C215.794 129.604 216.104 130.155 216.22 130.732C216.333 131.308 216.242 131.89 215.947 132.48ZM215.086 132.049C215.379 131.464 215.324 130.869 214.922 130.264C214.521 129.658 213.798 129.095 212.755 128.572C212.061 128.225 211.432 128.004 210.87 127.908C210.309 127.81 209.832 127.836 209.437 127.984C209.045 128.13 208.752 128.396 208.558 128.782C208.269 129.362 208.328 129.957 208.736 130.569C209.142 131.18 209.865 131.746 210.906 132.267C211.6 132.614 212.226 132.836 212.784 132.933C213.343 133.029 213.817 133.004 214.207 132.857C214.599 132.707 214.892 132.438 215.086 132.049ZM219.78 124.82C219.55 125.279 219.252 125.647 218.886 125.923C218.519 126.2 218.121 126.369 217.692 126.432C217.262 126.494 216.839 126.434 216.421 126.251L216.891 125.312C217.272 125.457 217.655 125.443 218.038 125.269C218.421 125.092 218.714 124.799 218.919 124.389C219.084 124.06 219.153 123.729 219.127 123.397C219.102 123.061 218.992 122.753 218.797 122.473C218.6 122.188 218.33 121.961 217.989 121.79C217.639 121.615 217.289 121.536 216.938 121.552C216.585 121.565 216.263 121.665 215.971 121.852C215.678 122.038 215.445 122.302 215.272 122.642C215.146 122.886 215.058 123.157 215.007 123.454C214.954 123.75 214.945 124.012 214.982 124.239L214.418 125.092L210.716 122.633L212.799 118.469L213.66 118.9L211.984 122.25L214.207 123.714L214.23 123.667C214.182 123.438 214.177 123.177 214.215 122.886C214.253 122.595 214.339 122.316 214.474 122.047C214.719 121.556 215.055 121.178 215.482 120.912C215.907 120.642 216.377 120.499 216.891 120.482C217.406 120.463 217.924 120.583 218.443 120.843C218.954 121.098 219.353 121.442 219.64 121.872C219.926 122.299 220.085 122.77 220.117 123.286C220.147 123.8 220.035 124.311 219.78 124.82ZM223.577 117.233C223.347 117.692 223.049 118.06 222.682 118.337C222.315 118.613 221.917 118.783 221.488 118.845C221.059 118.908 220.635 118.848 220.218 118.665L220.688 117.726C221.069 117.87 221.451 117.856 221.835 117.683C222.217 117.505 222.511 117.212 222.716 116.802C222.88 116.474 222.949 116.143 222.923 115.81C222.899 115.475 222.788 115.167 222.593 114.886C222.396 114.602 222.127 114.374 221.785 114.203C221.435 114.028 221.085 113.949 220.734 113.966C220.382 113.979 220.059 114.079 219.767 114.265C219.475 114.452 219.242 114.715 219.068 115.056C218.943 115.299 218.855 115.57 218.804 115.868C218.75 116.164 218.741 116.425 218.778 116.652L218.214 117.506L214.512 115.046L216.596 110.882L217.457 111.313L215.78 114.663L218.003 116.128L218.027 116.081C217.978 115.851 217.973 115.591 218.011 115.3C218.049 115.009 218.135 114.729 218.27 114.46C218.515 113.97 218.851 113.592 219.278 113.326C219.703 113.056 220.173 112.912 220.687 112.895C221.203 112.876 221.72 112.996 222.239 113.256C222.751 113.512 223.15 113.855 223.437 114.286C223.722 114.713 223.881 115.184 223.914 115.699C223.943 116.213 223.831 116.724 223.577 117.233ZM231.459 101.481C231.2 101.997 230.881 102.414 230.502 102.729C230.123 103.042 229.717 103.238 229.282 103.318C228.846 103.393 228.413 103.336 227.983 103.147L228.476 102.161C228.745 102.269 229.012 102.292 229.279 102.23C229.542 102.166 229.788 102.033 230.017 101.831C230.245 101.629 230.436 101.373 230.59 101.066C230.763 100.721 230.855 100.386 230.868 100.06C230.882 99.7336 230.819 99.4413 230.681 99.1829C230.543 98.9246 230.333 98.7249 230.051 98.5839C229.756 98.4363 229.46 98.3795 229.162 98.4133C228.862 98.4458 228.578 98.571 228.309 98.7888C228.04 99.0066 227.804 99.319 227.6 99.726L227.279 100.368L226.418 99.937L226.739 99.2952C226.898 98.9769 226.981 98.669 226.986 98.3715C226.993 98.0714 226.926 97.8013 226.785 97.5612C226.645 97.3185 226.435 97.1266 226.153 96.9856C225.881 96.8499 225.615 96.7917 225.354 96.8112C225.093 96.8307 224.852 96.922 224.63 97.085C224.41 97.2454 224.226 97.473 224.078 97.7678C223.94 98.0444 223.86 98.3307 223.839 98.6269C223.817 98.9192 223.862 99.1899 223.976 99.4391C224.087 99.6871 224.272 99.8842 224.531 100.03L224.061 100.97C223.649 100.744 223.345 100.433 223.148 100.038C222.948 99.6411 222.856 99.2066 222.87 98.7342C222.886 98.2593 223.009 97.791 223.241 97.3292C223.489 96.8335 223.802 96.4584 224.18 96.2041C224.556 95.9485 224.955 95.8071 225.376 95.7798C225.798 95.7526 226.198 95.8336 226.576 96.0229C227.027 96.2488 227.353 96.56 227.552 96.9567C227.753 97.3508 227.813 97.7808 227.734 98.2465L227.796 98.2778C228.133 97.8135 228.546 97.5259 229.035 97.4152C229.522 97.3031 230.02 97.3744 230.529 97.629C230.964 97.847 231.296 98.1615 231.525 98.5726C231.751 98.9797 231.862 99.4364 231.857 99.9427C231.851 100.449 231.719 100.962 231.459 101.481ZM233.947 96.2355L233.242 95.883L231.67 91.7883C231.486 91.3081 231.319 90.9049 231.169 90.5786C231.017 90.2511 230.854 89.9836 230.68 89.7761C230.506 89.5647 230.296 89.3976 230.05 89.2749C229.769 89.1339 229.491 89.0796 229.217 89.1122C228.944 89.1421 228.693 89.2451 228.465 89.4211C228.237 89.5972 228.05 89.83 227.905 90.1197C227.751 90.4275 227.681 90.7282 227.694 91.0218C227.705 91.3115 227.793 91.5757 227.957 91.8145C228.123 92.0507 228.359 92.2452 228.664 92.3979L228.202 93.3215C227.732 93.0865 227.374 92.772 227.127 92.3779C226.881 91.9838 226.752 91.5506 226.74 91.0783C226.73 90.6033 226.842 90.1324 227.075 89.6653C227.31 89.1957 227.618 88.8292 227.998 88.5658C228.377 88.3023 228.787 88.1518 229.227 88.1141C229.667 88.0764 230.092 88.1606 230.505 88.3669C230.8 88.5145 231.061 88.7122 231.289 88.9602C231.516 89.2042 231.737 89.5429 231.951 89.9761C232.163 90.4054 232.401 90.9731 232.664 91.679L233.689 94.4427L233.752 94.4741L235.616 90.7484L236.477 91.1792L233.947 96.2355ZM239.145 86.1218C238.85 86.7115 238.438 87.1334 237.909 87.3877C237.378 87.6406 236.751 87.7233 236.028 87.6356C235.303 87.5467 234.505 87.2842 233.633 86.8481C232.767 86.4147 232.082 85.935 231.579 85.409C231.074 84.8791 230.764 84.3258 230.648 83.7491C230.53 83.1685 230.618 82.5859 230.91 82.0015C231.203 81.4171 231.616 80.999 232.15 80.7474C232.682 80.4918 233.311 80.4085 234.036 80.4975C234.761 80.5825 235.556 80.8418 236.422 81.2752C237.293 81.7113 237.982 82.1929 238.488 82.7202C238.992 83.2462 239.301 83.7975 239.417 84.3742C239.531 84.9497 239.44 85.5322 239.145 86.1218ZM238.284 85.691C238.576 85.1066 238.521 84.5116 238.12 83.9061C237.718 83.3006 236.995 82.7367 235.952 82.2145C235.258 81.8672 234.63 81.6458 234.067 81.5504C233.506 81.4524 233.029 81.4777 232.635 81.6263C232.242 81.7723 231.949 82.0384 231.756 82.4245C231.466 83.0037 231.525 83.5993 231.933 84.2114C232.339 84.8221 233.062 85.3879 234.103 85.9089C234.797 86.2561 235.423 86.4781 235.982 86.5749C236.54 86.6716 237.014 86.6463 237.405 86.499C237.796 86.3491 238.089 86.0797 238.284 85.691ZM242.978 78.4619C242.748 78.9211 242.45 79.2889 242.083 79.5654C241.716 79.8419 241.318 80.0114 240.889 80.0739C240.46 80.1364 240.036 80.0762 239.619 79.8934L240.089 78.9542C240.47 79.0991 240.852 79.0849 241.236 78.9115C241.618 78.7341 241.912 78.4407 242.117 78.0311C242.281 77.7023 242.35 77.3716 242.324 77.0389C242.3 76.7036 242.19 76.3956 241.994 76.115C241.797 75.8305 241.528 75.6028 241.186 75.4318C240.836 75.2568 240.486 75.1778 240.135 75.1946C239.783 75.2075 239.46 75.3073 239.168 75.4937C238.876 75.6802 238.643 75.9437 238.469 76.2842C238.344 76.5281 238.256 76.7988 238.205 77.0963C238.151 77.3924 238.143 77.654 238.179 77.8811L237.615 78.7342L233.913 76.2749L235.997 72.1109L236.858 72.5417L235.181 75.8917L237.404 77.3563L237.428 77.3094C237.379 77.0797 237.374 76.8194 237.412 76.5285C237.45 76.2375 237.536 75.9577 237.671 75.689C237.916 75.1985 238.252 74.8202 238.679 74.5542C239.105 74.2842 239.574 74.1409 240.088 74.1241C240.604 74.1047 241.121 74.2249 241.64 74.4847C242.152 74.7406 242.551 75.0838 242.838 75.5145C243.123 75.9412 243.282 76.4123 243.315 76.9276C243.345 77.4417 243.232 77.9531 242.978 78.4619Z" fill="white"/>
<g clip-path="url(#clip4_79_1166)">
<path d="M145.084 198.354L150.047 188.436C150.598 187.335 151.906 186.885 152.986 187.426L154.933 188.4L153.241 191.783L154.477 195.613L158.371 197.562L159.325 200.52L162.645 202.181L160.659 206.148L157.34 204.487L154.4 205.496L149.358 202.973L148.403 200.015L145.084 198.354ZM156.268 194.029L158.789 195.291L160.774 191.323L156.88 189.375L155.595 191.943L156.268 194.029ZM147.285 203.685L146.612 201.599L144.091 200.338L142.106 204.305C141.555 205.406 141.979 206.722 143.06 207.263L145.007 208.237L147.285 203.685ZM152.833 207.193L148.939 205.244L146.954 209.212L150.848 211.16L152.833 207.193ZM157.145 206.87L155.073 207.582L152.795 212.134L154.742 213.109C155.822 213.649 157.131 213.2 157.681 212.099L159.667 208.132L157.145 206.87ZM160.443 196.85L161.116 198.935L163.637 200.197L165.623 196.23C166.173 195.129 165.749 193.812 164.668 193.272L162.721 192.297L160.443 196.85Z" fill="white"/>
</g>
<path d="M220.718 169.092C220.482 169.564 220.153 169.901 219.73 170.105C219.305 170.307 218.803 170.373 218.225 170.303C217.645 170.232 217.006 170.022 216.309 169.673C215.616 169.326 215.068 168.943 214.665 168.522C214.262 168.098 214.013 167.655 213.921 167.194C213.827 166.73 213.897 166.263 214.131 165.796C214.365 165.328 214.695 164.994 215.122 164.793C215.548 164.588 216.051 164.522 216.632 164.593C217.211 164.661 217.847 164.868 218.54 165.215C219.237 165.564 219.788 165.949 220.193 166.371C220.596 166.792 220.843 167.233 220.936 167.694C221.027 168.154 220.954 168.62 220.718 169.092ZM220.029 168.748C220.263 168.28 220.22 167.804 219.898 167.32C219.577 166.835 218.999 166.384 218.164 165.966C217.609 165.688 217.106 165.511 216.656 165.435C216.208 165.357 215.826 165.377 215.51 165.496C215.196 165.613 214.962 165.825 214.807 166.134C214.575 166.598 214.623 167.074 214.949 167.564C215.274 168.052 215.852 168.505 216.685 168.922C217.24 169.2 217.741 169.377 218.188 169.455C218.635 169.532 219.014 169.512 219.326 169.394C219.639 169.274 219.874 169.059 220.029 168.748ZM223.457 163.619C223.242 164.049 222.975 164.391 222.658 164.645C222.339 164.895 222 165.045 221.638 165.094C221.275 165.142 220.921 165.078 220.575 164.902C220.303 164.769 220.079 164.59 219.904 164.367C219.727 164.142 219.608 163.897 219.547 163.632C219.486 163.364 219.493 163.103 219.568 162.848L219.53 162.829C219.297 163.096 219.003 163.254 218.647 163.303C218.289 163.351 217.94 163.289 217.601 163.117C217.275 162.956 217.025 162.728 216.851 162.432C216.678 162.137 216.591 161.806 216.589 161.439C216.588 161.071 216.681 160.699 216.869 160.323C217.055 159.952 217.295 159.657 217.59 159.439C217.884 159.221 218.202 159.093 218.542 159.054C218.883 159.013 219.217 159.074 219.544 159.234C219.883 159.407 220.14 159.652 220.316 159.969C220.49 160.283 220.541 160.61 220.47 160.951L220.508 160.969C220.665 160.759 220.869 160.6 221.119 160.492C221.366 160.384 221.633 160.332 221.92 160.337C222.205 160.342 222.484 160.411 222.756 160.544C223.102 160.72 223.364 160.968 223.542 161.29C223.719 161.608 223.803 161.97 223.794 162.375C223.783 162.777 223.671 163.192 223.457 163.619ZM222.768 163.275C222.913 162.985 222.991 162.711 223.003 162.453C223.015 162.195 222.963 161.966 222.85 161.766C222.736 161.565 222.565 161.406 222.336 161.289C222.093 161.17 221.848 161.126 221.601 161.156C221.353 161.186 221.123 161.281 220.91 161.441C220.698 161.598 220.524 161.813 220.388 162.084C220.252 162.358 220.183 162.628 220.182 162.897C220.181 163.163 220.243 163.404 220.368 163.62C220.493 163.834 220.677 164.001 220.92 164.12C221.149 164.237 221.377 164.282 221.604 164.255C221.833 164.225 222.047 164.128 222.248 163.962C222.448 163.796 222.622 163.567 222.768 163.275ZM219.725 161.752C219.84 161.522 219.896 161.296 219.892 161.073C219.89 160.847 219.833 160.642 219.719 160.457C219.605 160.272 219.438 160.124 219.218 160.011C219 159.904 218.785 159.861 218.575 159.881C218.362 159.899 218.167 159.976 217.99 160.109C217.812 160.242 217.664 160.426 217.546 160.662C217.426 160.902 217.365 161.134 217.365 161.358C217.363 161.582 217.419 161.783 217.533 161.963C217.644 162.141 217.809 162.284 218.027 162.39C218.248 162.503 218.465 162.551 218.68 162.533C218.896 162.513 219.095 162.437 219.277 162.303C219.458 162.169 219.608 161.986 219.725 161.752ZM219.488 154.558L226.131 160.466L225.792 161.143L219.149 155.235L219.488 154.558ZM226.632 157.054L226.069 156.772L224.811 153.496C224.664 153.112 224.531 152.79 224.411 152.529C224.289 152.267 224.158 152.053 224.019 151.887C223.88 151.717 223.712 151.584 223.515 151.486C223.29 151.373 223.068 151.329 222.848 151.355C222.63 151.379 222.43 151.462 222.247 151.603C222.064 151.743 221.915 151.93 221.799 152.161C221.676 152.408 221.619 152.648 221.63 152.883C221.639 153.115 221.71 153.326 221.841 153.517C221.973 153.706 222.162 153.862 222.406 153.984L222.036 154.723C221.661 154.535 221.374 154.283 221.177 153.968C220.98 153.653 220.877 153.306 220.867 152.928C220.859 152.548 220.948 152.172 221.135 151.798C221.323 151.422 221.569 151.129 221.873 150.918C222.177 150.708 222.505 150.587 222.856 150.557C223.208 150.527 223.549 150.594 223.879 150.759C224.115 150.877 224.324 151.035 224.506 151.234C224.688 151.429 224.864 151.7 225.035 152.047C225.205 152.39 225.396 152.844 225.606 153.409L226.426 155.62L226.476 155.645L227.968 152.664L228.657 153.009L226.632 157.054ZM230.394 149.756C230.21 150.123 229.971 150.418 229.678 150.639C229.385 150.86 229.066 150.996 228.723 151.046C228.379 151.096 228.041 151.048 227.707 150.901L228.083 150.15C228.388 150.266 228.693 150.254 229 150.116C229.306 149.974 229.541 149.739 229.705 149.411C229.837 149.148 229.892 148.884 229.871 148.618C229.852 148.349 229.763 148.103 229.607 147.879C229.449 147.651 229.234 147.469 228.96 147.332C228.681 147.192 228.401 147.129 228.12 147.142C227.838 147.153 227.58 147.232 227.346 147.382C227.112 147.531 226.926 147.742 226.787 148.014C226.687 148.209 226.616 148.426 226.576 148.664C226.533 148.901 226.526 149.11 226.555 149.291L226.104 149.974L223.142 148.007L224.809 144.675L225.498 145.02L224.157 147.7L225.935 148.872L225.954 148.834C225.915 148.65 225.911 148.442 225.942 148.209C225.972 147.977 226.041 147.753 226.148 147.538C226.345 147.145 226.614 146.843 226.955 146.63C227.295 146.414 227.671 146.299 228.082 146.286C228.495 146.27 228.909 146.366 229.324 146.574C229.733 146.779 230.052 147.054 230.282 147.398C230.51 147.74 230.638 148.116 230.664 148.529C230.687 148.94 230.598 149.349 230.394 149.756Z" fill="white"/>
<path d="M202.903 185.29L205.844 185.719L205.861 185.686L203.754 183.59L204.073 182.952L206.714 185.686L206.355 186.403L202.584 185.927L202.903 185.29ZM207.509 184.096L207.199 184.716L204.558 181.983L204.917 181.266L208.688 181.74L208.378 182.36L205.401 181.941L205.389 181.966L207.509 184.096ZM206.263 183.447L207.109 181.756L207.575 181.99L206.729 183.68L206.263 183.447ZM208.9 181.318L205.694 179.714L205.984 179.133L208.703 180.494L209.41 179.082L209.897 179.325L208.9 181.318ZM207.234 176.636L210.44 178.241L210.149 178.821L206.943 177.217L207.234 176.636ZM211.298 176.525L210.754 177.612L207.548 176.007L208.103 174.899C208.262 174.581 208.463 174.339 208.706 174.175C208.948 174.009 209.22 173.925 209.52 173.921C209.821 173.917 210.138 173.999 210.47 174.166C210.804 174.333 211.06 174.538 211.238 174.783C211.417 175.026 211.512 175.296 211.524 175.593C211.536 175.889 211.461 176.2 211.298 176.525ZM210.542 176.779L210.781 176.302C210.893 176.079 210.946 175.872 210.939 175.682C210.931 175.492 210.865 175.318 210.739 175.161C210.613 175.004 210.427 174.864 210.182 174.742C209.937 174.619 209.715 174.555 209.515 174.549C209.315 174.542 209.138 174.593 208.984 174.7C208.829 174.805 208.698 174.966 208.589 175.183L208.341 175.678L210.542 176.779ZM208.471 188.789L207.984 188.545L209.264 185.987L209.751 186.231L209.255 187.222L211.974 188.582L211.686 189.158L208.966 187.798L208.471 188.789ZM212.716 187.098L209.51 185.494L209.801 184.913L211.158 185.593L211.902 184.107L210.544 183.428L210.836 182.845L214.042 184.45L213.75 185.032L212.389 184.351L211.645 185.836L213.007 186.518L212.716 187.098ZM214.358 183.818L211.152 182.214L211.754 181.012C211.877 180.765 212.023 180.58 212.192 180.456C212.362 180.331 212.545 180.264 212.743 180.256C212.939 180.246 213.14 180.292 213.344 180.394C213.55 180.497 213.707 180.63 213.814 180.794C213.921 180.956 213.973 181.142 213.971 181.352C213.968 181.562 213.905 181.79 213.782 182.036L213.353 182.892L212.871 182.651L213.26 181.873C213.332 181.729 213.371 181.601 213.378 181.49C213.383 181.377 213.358 181.28 213.303 181.198C213.247 181.114 213.162 181.043 213.048 180.986C212.935 180.929 212.826 180.903 212.724 180.908C212.62 180.912 212.524 180.949 212.436 181.02C212.347 181.091 212.267 181.199 212.194 181.344L211.928 181.876L214.649 183.237L214.358 183.818ZM213.734 181.435L215.584 181.368L215.26 182.016L213.417 182.069L213.734 181.435ZM213.598 177.326L213.889 176.745L215.983 177.793C216.213 177.908 216.387 178.063 216.507 178.259C216.628 178.454 216.688 178.673 216.689 178.917C216.688 179.161 216.623 179.413 216.492 179.674C216.361 179.936 216.198 180.141 216.003 180.287C215.808 180.433 215.596 180.516 215.368 180.537C215.14 180.557 214.911 180.51 214.681 180.395L212.587 179.347L212.877 178.766L214.923 179.79C215.057 179.857 215.19 179.887 215.324 179.881C215.458 179.873 215.582 179.831 215.695 179.753C215.807 179.675 215.9 179.562 215.974 179.415C216.048 179.268 216.082 179.126 216.077 178.989C216.072 178.851 216.032 178.727 215.957 178.616C215.882 178.505 215.778 178.416 215.644 178.35L213.598 177.326Z" fill="white"/>
<path d="M205.085 237.471L200.597 235.225L201.439 233.542C201.612 233.197 201.816 232.938 202.053 232.764C202.291 232.589 202.547 232.495 202.824 232.484C203.099 232.47 203.38 232.535 203.666 232.678C203.954 232.822 204.173 233.009 204.324 233.237C204.474 233.464 204.547 233.724 204.544 234.019C204.539 234.312 204.451 234.632 204.278 234.977L203.678 236.175L203.003 235.838L203.549 234.748C203.649 234.547 203.704 234.368 203.713 234.211C203.72 234.054 203.685 233.918 203.608 233.803C203.53 233.685 203.411 233.586 203.252 233.507C203.093 233.427 202.941 233.39 202.797 233.397C202.652 233.403 202.518 233.455 202.395 233.554C202.271 233.653 202.158 233.804 202.056 234.007L201.683 234.752L205.492 236.658L205.085 237.471ZM204.212 234.135L206.802 234.041L206.348 234.949L203.768 235.022L204.212 234.135ZM207.382 232.881L206.948 233.749L203.25 229.923L203.753 228.919L209.033 229.583L208.598 230.45L204.431 229.864L204.413 229.899L207.382 232.881ZM205.637 231.972L206.821 229.605L207.474 229.932L206.29 232.299L205.637 231.972ZM209.329 228.991L204.84 226.745L205.247 225.932L207.147 226.883L208.188 224.803L206.288 223.853L206.696 223.037L211.184 225.283L210.776 226.098L208.869 225.144L207.829 227.224L209.735 228.178L209.329 228.991ZM208.554 219.324L208.961 218.511L211.893 219.978C212.215 220.139 212.459 220.356 212.627 220.63C212.796 220.903 212.881 221.21 212.881 221.552C212.88 221.893 212.789 222.246 212.606 222.612C212.422 222.978 212.194 223.264 211.922 223.47C211.648 223.674 211.351 223.791 211.032 223.819C210.712 223.847 210.392 223.781 210.071 223.62L207.138 222.153L207.545 221.34L210.41 222.773C210.597 222.867 210.784 222.909 210.971 222.901C211.158 222.89 211.332 222.831 211.49 222.722C211.647 222.612 211.777 222.455 211.88 222.249C211.984 222.043 212.032 221.844 212.025 221.653C212.018 221.459 211.962 221.285 211.857 221.13C211.752 220.975 211.605 220.851 211.418 220.757L208.554 219.324ZM213.892 219.873L209.403 217.627L209.81 216.814L213.617 218.719L214.606 216.742L215.288 217.083L213.892 219.873ZM214.373 210.779C214.171 210.703 213.979 210.715 213.796 210.813C213.614 210.911 213.463 211.08 213.342 211.321C213.258 211.49 213.21 211.648 213.201 211.795C213.191 211.942 213.214 212.07 213.27 212.178C213.325 212.286 213.409 212.369 213.521 212.427C213.614 212.473 213.706 212.493 213.796 212.485C213.886 212.475 213.974 212.445 214.06 212.395C214.144 212.344 214.225 212.281 214.302 212.207C214.38 212.132 214.452 212.054 214.52 211.973L214.836 211.605C214.96 211.455 215.095 211.319 215.241 211.196C215.387 211.072 215.542 210.974 215.707 210.901C215.872 210.826 216.045 210.789 216.226 210.788C216.407 210.787 216.595 210.835 216.789 210.933C217.052 211.064 217.25 211.247 217.383 211.482C217.515 211.716 217.573 211.988 217.558 212.299C217.543 212.607 217.445 212.941 217.265 213.3C217.091 213.649 216.885 213.925 216.648 214.129C216.412 214.33 216.154 214.451 215.874 214.492C215.595 214.532 215.304 214.482 215 214.345L215.4 213.545C215.562 213.612 215.716 213.628 215.862 213.596C216.009 213.563 216.141 213.491 216.26 213.381C216.38 213.269 216.483 213.129 216.567 212.959C216.656 212.782 216.707 212.614 216.721 212.455C216.734 212.294 216.712 212.151 216.655 212.028C216.597 211.903 216.504 211.808 216.376 211.743C216.258 211.685 216.145 211.672 216.035 211.701C215.924 211.729 215.813 211.791 215.701 211.887C215.588 211.98 215.471 212.097 215.35 212.238L214.963 212.682C214.683 213.005 214.393 213.225 214.092 213.343C213.791 213.459 213.48 213.437 213.159 213.276C212.894 213.144 212.699 212.956 212.571 212.713C212.445 212.469 212.389 212.196 212.404 211.893C212.417 211.589 212.503 211.28 212.66 210.965C212.819 210.647 213.014 210.396 213.245 210.212C213.475 210.025 213.723 209.913 213.987 209.873C214.25 209.833 214.509 209.874 214.764 209.996L214.373 210.779ZM218.412 210.838L213.924 208.592L214.331 207.779L216.231 208.73L217.272 206.65L215.371 205.7L215.779 204.884L220.268 207.13L219.86 207.946L217.953 206.991L216.912 209.071L218.819 210.025L218.412 210.838ZM220.999 205.67L220.564 206.537L216.867 202.711L217.369 201.708L222.649 202.371L222.215 203.239L218.047 202.653L218.03 202.688L220.999 205.67ZM219.253 204.76L220.438 202.394L221.091 202.72L219.906 205.087L219.253 204.76ZM222.945 201.78L218.457 199.534L219.299 197.851C219.471 197.506 219.676 197.247 219.913 197.073C220.15 196.898 220.407 196.804 220.683 196.793C220.959 196.779 221.24 196.844 221.526 196.987C221.814 197.131 222.033 197.317 222.184 197.546C222.333 197.773 222.407 198.033 222.404 198.328C222.399 198.621 222.311 198.941 222.138 199.285L221.538 200.484L220.863 200.146L221.408 199.057C221.509 198.856 221.564 198.677 221.573 198.52C221.58 198.363 221.545 198.227 221.468 198.111C221.39 197.994 221.271 197.895 221.112 197.815C220.952 197.736 220.801 197.699 220.657 197.706C220.511 197.711 220.377 197.764 220.255 197.863C220.13 197.962 220.017 198.113 219.916 198.316L219.543 199.061L223.352 200.967L222.945 201.78ZM222.072 198.444L224.661 198.35L224.207 199.258L221.627 199.331L222.072 198.444ZM220.465 195.52L220.963 194.525L224.882 194.82L224.908 194.768L222.323 191.808L222.821 190.813L227.309 193.059L226.919 193.839L223.835 192.296L223.814 192.337L226.264 195.114L225.972 195.697L222.275 195.398L222.254 195.44L225.344 196.986L224.954 197.766L220.465 195.52ZM228.041 191.597L227.606 192.465L223.909 188.639L224.411 187.635L229.691 188.298L229.257 189.166L225.089 188.58L225.072 188.615L228.041 191.597ZM226.295 190.688L227.479 188.321L228.133 188.648L226.948 191.015L226.295 190.688Z" fill="white"/>
<g clip-path="url(#clip5_79_1166)">
<path d="M222.872 59.0565C223.227 59.2342 223.659 59.0904 223.836 58.7354C224.014 58.3803 223.87 57.9485 223.515 57.7708C223.16 57.5931 222.728 57.7369 222.551 58.092C222.373 58.447 222.517 58.8789 222.872 59.0565Z" fill="white"/>
<path d="M224.802 55.1993C223.97 54.783 223.009 54.7054 222.121 54.9831C221.939 55.0402 221.787 55.1672 221.699 55.3363C221.61 55.5054 221.593 55.7026 221.65 55.8847C221.707 56.0668 221.834 56.2187 222.003 56.3071C222.172 56.3954 222.369 56.413 222.551 56.356C223.084 56.2044 223.653 56.2577 224.149 56.5054C224.644 56.7531 225.028 57.1772 225.226 57.6942C225.289 57.8741 225.421 58.0215 225.594 58.1038C225.766 58.1862 225.963 58.1968 226.143 58.1333C226.323 58.0698 226.471 57.9375 226.553 57.7654C226.635 57.5933 226.646 57.3955 226.582 57.2156C226.272 56.3384 225.634 55.6157 224.802 55.1993ZM226.41 51.985C225.634 51.597 224.787 51.3693 223.92 51.3154C223.054 51.2616 222.185 51.3827 221.366 51.6716C221.277 51.7042 221.194 51.7543 221.124 51.8188C221.054 51.8834 220.997 51.9611 220.956 52.0477C220.916 52.1343 220.893 52.2279 220.889 52.3233C220.885 52.4187 220.9 52.514 220.932 52.6037C220.998 52.7849 221.134 52.9325 221.308 53.0139C221.395 53.0543 221.489 53.0771 221.584 53.0813C221.679 53.0854 221.775 53.0707 221.864 53.038C222.502 52.8126 223.179 52.718 223.854 52.7599C224.529 52.8019 225.189 52.9795 225.794 53.2822C226.398 53.5849 226.936 54.0064 227.374 54.5216C227.813 55.0368 228.143 55.6351 228.344 56.2806C228.374 56.3712 228.42 56.455 228.482 56.5273C228.544 56.5997 228.62 56.659 228.704 56.7019C228.83 56.7643 228.972 56.7884 229.111 56.7713C229.251 56.7542 229.382 56.6967 229.489 56.6057C229.596 56.5148 229.674 56.3945 229.714 56.2596C229.753 56.1248 229.752 55.9814 229.711 55.8471C229.45 55.0139 229.023 54.2423 228.456 53.5785C227.888 52.9148 227.193 52.3727 226.41 51.985Z" fill="white"/>
<path d="M233.003 54.4239C232.136 51.9661 230.348 49.9408 228.017 48.7744C225.686 47.608 222.994 47.3914 220.506 48.1703C220.337 48.2367 220.2 48.3644 220.121 48.5279C220.043 48.6914 220.029 48.8786 220.082 49.0519C220.136 49.2252 220.253 49.3719 220.41 49.4624C220.568 49.5529 220.753 49.5806 220.93 49.54C223.064 48.8693 225.376 49.0541 227.376 50.0552C229.377 51.0563 230.91 52.7955 231.653 54.9057C231.715 55.0802 231.841 55.2242 232.007 55.3077C232.093 55.3507 232.188 55.3757 232.285 55.3813C232.381 55.3868 232.478 55.3728 232.569 55.34C232.748 55.2757 232.894 55.1432 232.975 54.9716C233.057 54.7999 233.067 54.603 233.003 54.4239Z" fill="white"/>
</g>
<path d="M170.516 62.0456L165.387 59.4788L166.007 58.239L168.066 59.2692L169.077 57.2479L167.019 56.2177L167.638 54.9804L172.767 57.5472L172.148 58.7845L170.087 57.753L169.075 59.7743L171.137 60.8058L170.516 62.0456ZM174.105 54.8735L173.157 56.7695L168.027 54.2027L168.974 52.3092C169.236 51.7865 169.564 51.3879 169.958 51.1133C170.351 50.8362 170.792 50.691 171.278 50.6778C171.764 50.6638 172.272 50.79 172.805 51.0566C173.339 51.324 173.747 51.6564 174.029 52.054C174.311 52.4499 174.46 52.8887 174.475 53.3706C174.489 53.8515 174.366 54.3525 174.105 54.8735ZM172.72 55.0008L173.025 54.3922C173.168 54.105 173.241 53.8378 173.244 53.5906C173.246 53.3409 173.162 53.11 172.992 52.8979C172.822 52.6832 172.553 52.4836 172.183 52.2989C171.814 52.1142 171.495 52.019 171.224 52.013C170.952 52.0063 170.717 52.0797 170.519 52.2332C170.32 52.3843 170.147 52.6068 170 52.9007L169.704 53.4918L172.72 55.0008ZM175.735 51.6174L170.605 49.0506L172.357 45.549L173.364 46.0529L172.232 48.3146L173.284 48.841L174.305 46.8022L175.314 47.3073L174.294 49.3461L176.355 50.3776L175.735 51.6174ZM176.858 41.1985L176.231 42.4509C176.094 42.4032 175.961 42.3794 175.832 42.3793C175.702 42.3793 175.58 42.4035 175.464 42.4519C175.347 42.5003 175.241 42.5733 175.144 42.671C175.046 42.7661 174.962 42.8838 174.892 43.0241C174.768 43.2729 174.721 43.518 174.753 43.7593C174.785 43.999 174.893 44.2249 175.075 44.437C175.257 44.6475 175.512 44.8346 175.84 44.9984C176.18 45.1689 176.49 45.2633 176.769 45.2818C177.047 45.2977 177.289 45.2464 177.494 45.1279C177.699 45.0069 177.862 44.8245 177.984 44.5807C178.053 44.4438 178.097 44.3106 178.118 44.1812C178.14 44.0501 178.139 43.9253 178.115 43.8067C178.09 43.6856 178.043 43.5733 177.973 43.4697C177.903 43.3637 177.812 43.2689 177.699 43.1853L178.333 41.9367C178.55 42.0721 178.74 42.25 178.906 42.4705C179.072 42.6893 179.198 42.9395 179.285 43.2209C179.37 43.5015 179.397 43.8054 179.367 44.1328C179.338 44.4584 179.235 44.7974 179.059 45.1497C178.826 45.6139 178.517 45.9787 178.129 46.2441C177.741 46.5071 177.297 46.6464 176.799 46.6621C176.3 46.6778 175.77 46.5448 175.207 46.2633C174.642 45.9808 174.218 45.6338 173.933 45.222C173.649 44.8102 173.496 44.3697 173.477 43.9004C173.457 43.4311 173.561 42.9686 173.789 42.5127C173.944 42.2021 174.131 41.9367 174.35 41.7163C174.567 41.4951 174.809 41.3256 175.074 41.208C175.338 41.0895 175.621 41.0274 175.922 41.0216C176.224 41.0159 176.536 41.0748 176.858 41.1985ZM181.242 40.6106L176.113 38.0438L177.183 35.9048C177.375 35.5207 177.59 35.2265 177.829 35.0219C178.067 34.8158 178.317 34.6964 178.578 34.664C178.839 34.6298 179.098 34.6771 179.355 34.8057C179.551 34.9035 179.705 35.0317 179.817 35.1904C179.928 35.3483 179.998 35.5241 180.026 35.7178C180.055 35.9115 180.042 36.1128 179.987 36.3215L180.038 36.3466C180.151 36.1445 180.303 35.9813 180.492 35.857C180.683 35.731 180.896 35.66 181.131 35.6443C181.365 35.6276 181.606 35.6811 181.853 35.8048C182.128 35.9427 182.339 36.1361 182.486 36.3849C182.631 36.633 182.7 36.9211 182.693 37.2493C182.683 37.5766 182.584 37.9298 182.394 38.3088L181.242 40.6106ZM180.863 38.8707L181.247 38.1043C181.381 37.8354 181.43 37.6121 181.391 37.4342C181.354 37.2547 181.244 37.1194 181.062 37.0283C180.93 36.9623 180.801 36.9364 180.675 36.9505C180.547 36.9638 180.429 37.0143 180.32 37.102C180.21 37.1888 180.115 37.3115 180.036 37.4701L179.641 38.2591L180.863 38.8707ZM178.842 37.8593L179.186 37.173C179.253 37.0377 179.291 36.9062 179.298 36.7785C179.306 36.6507 179.282 36.5363 179.226 36.4353C179.171 36.3325 179.083 36.2511 178.963 36.1909C178.791 36.1049 178.625 36.0981 178.466 36.1707C178.306 36.2433 178.175 36.3831 178.071 36.5902L177.718 37.2965L178.842 37.8593ZM184.141 34.8173L183.475 36.1498L179.211 31.8522L180.037 30.2016L186.033 31.0377L185.366 32.3702L180.926 31.6549L180.906 31.6949L184.141 34.8173ZM182.034 33.9849L183.427 31.1997L184.369 31.671L182.975 34.4562L182.034 33.9849ZM183.364 23.553L188.494 26.1198L187.967 27.1718L183.985 27.7316L183.969 27.7642L186.929 29.2456L186.309 30.4854L181.179 27.9186L181.713 26.8516L185.679 26.3118L185.7 26.2692L182.745 24.7903L183.364 23.553ZM188.884 25.3402L183.754 22.7734L184.374 21.5336L186.544 22.619L186.577 22.5513L185.257 19.7703L185.988 18.3101L187.367 21.274L191.133 20.8443L190.391 22.3271L187.736 22.5955L188.114 23.4048L189.504 24.1004L188.884 25.3402Z" fill="white"/>
<g clip-path="url(#clip6_79_1166)">
<path d="M164.554 62.9693L161.082 61.2322C160.946 61.1639 160.788 61.1527 160.643 61.2009C160.498 61.249 160.379 61.3527 160.31 61.4891L158.573 64.9606M157.801 66.5035L156.064 69.975C155.996 70.1114 155.985 70.2693 156.033 70.414C156.081 70.5587 156.185 70.6784 156.321 70.7466L159.793 72.4837M161.335 73.2558L164.807 74.9929C164.943 75.0612 165.101 75.0724 165.246 75.0243C165.391 74.9761 165.51 74.8724 165.579 74.736L167.316 71.2645M168.088 69.7216L169.825 66.2501C169.893 66.1137 169.904 65.9558 169.856 65.8111C169.808 65.6664 169.704 65.5467 169.568 65.4785L166.096 63.7414M162.174 65.7976L160.63 68.8834L163.715 70.4275L165.259 67.3417L162.174 65.7976Z" stroke="white" stroke-width="2.05389" stroke-linecap="round" stroke-linejoin="round"/>
</g>
<rect x="151.976" y="72.1322" width="65.3137" height="16.0203" transform="rotate(-63.4168 151.976 72.1322)" stroke="white" stroke-width="0.7394"/>
<path d="M100.802 190.084C100.613 190.201 100.428 190.343 100.244 190.51C100.063 190.672 99.9195 190.847 99.8136 191.036C99.7313 191.188 99.6807 191.331 99.6618 191.462C99.6406 191.587 99.6418 191.702 99.6652 191.808C99.6887 191.914 99.731 192.005 99.7921 192.083C99.8532 192.161 99.9238 192.225 100.004 192.277C100.14 192.357 100.285 192.38 100.438 192.344C100.59 192.309 100.749 192.239 100.914 192.133C101.076 192.02 101.239 191.899 101.404 191.77C101.588 191.615 101.785 191.478 101.997 191.361C102.208 191.243 102.437 191.181 102.681 191.174C102.928 191.162 103.197 191.247 103.489 191.428C103.658 191.536 103.809 191.676 103.94 191.848C104.072 192.02 104.167 192.217 104.226 192.441C104.287 192.659 104.3 192.898 104.264 193.157C104.229 193.415 104.131 193.687 103.971 193.971C103.854 194.183 103.718 194.377 103.565 194.553C103.41 194.723 103.244 194.872 103.068 195.001C102.887 195.128 102.696 195.233 102.496 195.315L102.137 194.623C102.283 194.567 102.431 194.488 102.581 194.387C102.732 194.286 102.872 194.171 103.001 194.042C103.128 193.905 103.234 193.764 103.319 193.619C103.415 193.437 103.471 193.256 103.485 193.075C103.499 192.894 103.471 192.727 103.4 192.575C103.327 192.415 103.215 192.288 103.062 192.193C102.921 192.111 102.776 192.083 102.628 192.109C102.482 192.13 102.334 192.185 102.183 192.274C102.035 192.359 101.888 192.459 101.742 192.574C101.601 192.692 101.45 192.807 101.287 192.92C101.127 193.028 100.959 193.117 100.783 193.187C100.607 193.258 100.421 193.288 100.226 193.279C100.03 193.269 99.8306 193.199 99.626 193.067C99.3627 192.9 99.1676 192.691 99.0407 192.439C98.9138 192.187 98.8587 191.916 98.8752 191.624C98.8941 191.328 98.9789 191.029 99.1295 190.728C99.2589 190.505 99.3953 190.315 99.5388 190.157C99.6799 189.993 99.8258 189.854 99.9763 189.741C100.127 189.628 100.279 189.531 100.431 189.449L100.802 190.084ZM105.395 191.021L105.024 191.761L101.153 186.191L101.174 186.149L107.301 187.212L106.867 188.08L102.169 187.14L102.109 186.378L105.395 191.021ZM103.91 189.193L104.825 187.367L105.558 187.522L104.408 189.821L103.91 189.193ZM108.124 185.567L107.76 186.294L102.795 182.998L102.798 182.991L107.782 182.671L107.553 182.954L105.357 177.877L105.361 177.87L110.326 181.166L109.952 181.914L106.581 179.68L106.969 179.874L108.533 183.427L108.526 183.441L105.056 183.697L104.788 183.351L108.124 185.567ZM106.944 175.129C107.066 174.885 107.211 174.678 107.378 174.509C107.54 174.337 107.718 174.211 107.911 174.131C108.106 174.047 108.311 174.008 108.525 174.015C108.739 174.022 108.961 174.083 109.191 174.199C109.403 174.305 109.6 174.45 109.784 174.636C109.965 174.815 110.11 175.029 110.221 175.278C110.329 175.521 110.377 175.795 110.365 176.1C110.356 176.401 110.263 176.728 110.086 177.081L109.723 177.807L111.44 178.94L111.052 179.716L106.242 176.533L106.944 175.129ZM109.391 176.654C109.497 176.442 109.549 176.25 109.547 176.079C109.542 175.9 109.507 175.741 109.441 175.603C109.371 175.461 109.285 175.345 109.184 175.253C109.085 175.157 108.991 175.086 108.902 175.042C108.779 174.98 108.643 174.947 108.493 174.943C108.344 174.933 108.199 174.972 108.055 175.059C107.909 175.139 107.782 175.287 107.674 175.503L107.321 176.209L109.042 177.352L109.391 176.654ZM108.327 172.366L108.705 171.611L112.827 174.353L114.112 171.785L114.792 172.241L113.137 175.549L108.327 172.366ZM110.495 168.033L112.178 164.669L112.841 165.106L111.546 167.695L112.95 168.626L114.104 166.32L114.77 166.768L113.62 169.068L115.016 169.996L116.361 167.308L117.034 167.76L115.305 171.216L110.495 168.033Z" fill="white"/>
</g>
<defs>
<filter id="filter0_b_79_1166" x="-1.96534" y="3.03459" width="210.095" height="257.388" filterUnits="userSpaceOnUse" color-interpolation-filters="sRGB">
<feFlood flood-opacity="0" result="BackgroundImageFix"/>
<feGaussianBlur in="BackgroundImageFix" stdDeviation="2.46467"/>
<feComposite in2="SourceAlpha" operator="in" result="effect1_backgroundBlur_79_1166"/>
<feBlend mode="normal" in="SourceGraphic" in2="effect1_backgroundBlur_79_1166" result="shape"/>
</filter>
<filter id="filter1_b_79_1166" x="80.7869" y="-1.21318" width="225.56" height="260.798" filterUnits="userSpaceOnUse" color-interpolation-filters="sRGB">
<feFlood flood-opacity="0" result="BackgroundImageFix"/>
<feGaussianBlur in="BackgroundImageFix" stdDeviation="2.46467"/>
<feComposite in2="SourceAlpha" operator="in" result="effect1_backgroundBlur_79_1166"/>
<feBlend mode="normal" in="SourceGraphic" in2="effect1_backgroundBlur_79_1166" result="shape"/>
</filter>
<clipPath id="clip0_79_1166">
<rect width="34.5053" height="34.5053" fill="white" transform="translate(114.291 58.4636) rotate(-109.912)"/>
</clipPath>
<clipPath id="clip1_79_1166">
<rect width="26.6184" height="26.1255" fill="white" transform="translate(119.558 226.421) rotate(-109.912)"/>
</clipPath>
<clipPath id="clip2_79_1166">
<rect x="59.3823" y="51.6155" width="17.2527" height="17.2527" rx="8.62633" transform="rotate(-19.9124 59.3823 51.6155)" fill="white"/>
</clipPath>
<clipPath id="clip3_79_1166">
<rect width="13.8021" height="13.8021" fill="white" transform="translate(33.5653 120.735) rotate(-109.912)"/>
</clipPath>
<clipPath id="clip4_79_1166">
<rect width="26.6184" height="26.1255" fill="white" transform="translate(136.226 206.324) rotate(-63.4168)"/>
</clipPath>
<clipPath id="clip5_79_1166">
<rect x="221.591" y="42.3389" width="17.2527" height="17.2527" rx="8.62633" transform="rotate(26.5832 221.591 42.3389)" fill="white"/>
</clipPath>
<clipPath id="clip6_79_1166">
<rect width="13.8021" height="13.8021" fill="white" transform="translate(153.685 71.1959) rotate(-63.4168)"/>
</clipPath>
</defs>
</svg>
