<svg width="414" height="475" viewBox="0 0 414 475" fill="none" xmlns="http://www.w3.org/2000/svg">
<g filter="url(#filter0_b_1_28)">
<path opacity="0.4" d="M202.5 423.992C309.919 423.992 397 336.911 397 229.492C397 122.072 309.919 34.9916 202.5 34.9916C95.0806 34.9916 8 122.072 8 229.492C8 336.911 95.0806 423.992 202.5 423.992Z" fill="black" fill-opacity="0.25"/>
<g opacity="0.4" filter="url(#filter1_d_1_28)">
<path d="M206.886 386.062C295.269 386.062 366.918 314.414 366.918 226.031C366.918 137.648 295.269 65.9997 206.886 65.9997C118.503 65.9997 46.855 137.648 46.855 226.031C46.855 314.414 118.503 386.062 206.886 386.062Z" fill="white" fill-opacity="0.85"/>
</g>
<path opacity="0.4" d="M31.0696 76.6321C38.9546 76.6321 45.3466 70.24 45.3466 62.355C45.3466 54.47 38.9546 48.078 31.0696 48.078C23.1846 48.078 16.7925 54.47 16.7925 62.355C16.7925 70.24 23.1846 76.6321 31.0696 76.6321Z" fill="white" fill-opacity="0.85"/>
<path opacity="0.4" d="M32.8889 31.9085C37.3356 31.9085 40.9404 28.3038 40.9404 23.857C40.9404 19.4103 37.3356 15.8055 32.8889 15.8055C28.4422 15.8055 24.8374 19.4103 24.8374 23.857C24.8374 28.3038 28.4422 31.9085 32.8889 31.9085Z" fill="white" fill-opacity="0.85"/>
<path opacity="0.5" d="M282.446 25.8084H127.046C106.168 25.8084 89.2429 42.7335 89.2429 63.6115V436.647C89.2429 457.525 106.168 474.451 127.046 474.451H282.446C303.324 474.451 320.249 457.525 320.249 436.647V63.6115C320.249 42.7335 303.324 25.8084 282.446 25.8084Z" fill="#C2CED3"/>
<path d="M285.007 13.9795H123.956C105.256 13.9795 90.0963 29.1391 90.0963 47.8395V424.415C90.0963 443.115 105.256 458.275 123.956 458.275H285.007C303.707 458.275 318.867 443.115 318.867 424.415V47.8395C318.867 29.1391 303.707 13.9795 285.007 13.9795Z" fill="black" fill-opacity="0.25"/>
<path d="M284.808 15.567H122.792C117.614 15.5588 112.502 16.7314 107.846 18.9955C103.189 21.2597 99.1098 24.5558 95.9183 28.6333C101.9 23.9859 109.263 21.4689 116.838 21.4815H278.854C287.86 21.4569 296.507 25.0101 302.894 31.3597C309.281 37.7093 312.884 46.3356 312.912 55.3416V431.924C312.916 439.464 310.38 446.787 305.714 452.711C309.802 449.561 313.113 445.515 315.392 440.885C317.671 436.254 318.857 431.163 318.86 426.002V49.4204C318.832 40.4161 315.229 31.7916 308.843 25.4432C302.458 19.0948 293.812 15.5424 284.808 15.567Z" fill="black" fill-opacity="0.25"/>
<path d="M285.006 460.914H123.956C114.279 460.904 105 457.055 98.1563 450.213C91.3125 443.37 87.4622 434.092 87.4499 424.415V47.8327C87.4622 38.1549 91.3125 28.8772 98.1563 22.0346C105 15.1921 114.279 11.3434 123.956 11.3329H285.006C294.684 11.3434 303.963 15.1921 310.806 22.0346C317.65 28.8772 321.501 38.1549 321.513 47.8327V132.9H316.22V47.8327C316.21 39.5581 312.917 31.6256 307.066 25.7752C301.214 19.9248 293.281 16.6343 285.006 16.6256H123.956C115.682 16.6343 107.748 19.9248 101.897 25.7752C96.0453 31.6256 92.7531 39.5581 92.7426 47.8327V424.415C92.7531 432.689 96.0453 440.622 101.897 446.472C107.748 452.323 115.682 455.613 123.956 455.622H285.006C293.281 455.613 301.214 452.323 307.066 446.472C312.917 440.622 316.21 432.689 316.22 424.415V173.997H321.513V424.415C321.501 434.092 317.65 443.37 310.806 450.213C303.963 457.055 294.684 460.904 285.006 460.914Z" fill="#213346"/>
<path d="M316.22 161.824H321.513V167.262H316.22V161.824Z" fill="#213346"/>
<path d="M316.22 141.587H321.513V156.849H316.22V141.587Z" fill="#213346"/>
<path d="M287.018 30.7772H121.952C113.022 30.7772 105.783 38.0164 105.783 46.9464V422.655C105.783 431.585 113.022 438.824 121.952 438.824H287.018C295.948 438.824 303.187 431.585 303.187 422.655V46.9464C303.187 38.0164 295.948 30.7772 287.018 30.7772Z" fill="white" fill-opacity="0.6"/>
<path d="M286.078 31.7101H121.012C118.072 31.7071 115.187 32.5065 112.668 34.022C110.148 35.5376 108.09 37.7119 106.715 40.3107C109.038 39.0851 111.625 38.4447 114.251 38.445H279.317C283.605 38.445 287.718 40.1486 290.75 43.1809C293.782 46.2132 295.486 50.3259 295.486 54.6142V430.349C295.49 432.978 294.849 435.568 293.62 437.891C296.22 436.515 298.394 434.456 299.91 431.936C301.425 429.415 302.224 426.529 302.221 423.588V47.8793C302.221 43.5955 300.521 39.4868 297.494 36.4553C294.468 33.4237 290.362 31.7171 286.078 31.7101Z" fill="#DCE1FF"/>
<path d="M287.011 440.809H121.952C117.139 440.803 112.524 438.889 109.121 435.486C105.717 432.082 103.803 427.468 103.798 422.655V46.9725C103.803 42.1594 105.717 37.5449 109.121 34.1415C112.524 30.7381 117.139 28.8238 121.952 28.8185H287.011C291.824 28.8238 296.439 30.7381 299.842 34.1415C303.245 37.5449 305.16 42.1594 305.165 46.9725V422.655C305.16 427.468 303.245 432.082 299.842 435.486C296.439 438.889 291.824 440.803 287.011 440.809ZM121.952 32.7616C120.087 32.7633 118.241 33.1323 116.52 33.8474C114.798 34.5625 113.234 35.6098 111.916 36.9294C110.599 38.249 109.555 39.8151 108.843 41.5383C108.131 43.2615 107.766 45.108 107.767 46.9725V422.655C107.771 426.416 109.266 430.021 111.926 432.681C114.585 435.34 118.191 436.836 121.952 436.839H287.011C290.772 436.836 294.378 435.34 297.037 432.681C299.697 430.021 301.192 426.416 301.196 422.655V46.9725C301.192 43.2116 299.697 39.6058 297.037 36.9465C294.378 34.2871 290.772 32.7916 287.011 32.7881L121.952 32.7616Z" fill="#213346"/>
<path d="M61.8664 26.5029C67.6285 26.5029 72.2997 21.8318 72.2997 16.0696C72.2997 10.3075 67.6285 5.63641 61.8664 5.63641C56.1043 5.63641 51.4332 10.3075 51.4332 16.0696C51.4332 21.8318 56.1043 26.5029 61.8664 26.5029Z" fill="white" fill-opacity="0.85"/>
<path d="M90.9102 8.30953C93.2048 8.30953 95.0649 6.44938 95.0649 4.15477C95.0649 1.86015 93.2048 0 90.9102 0C88.6155 0 86.7554 1.86015 86.7554 4.15477C86.7554 6.44938 88.6155 8.30953 90.9102 8.30953Z" fill="#FFC62A"/>
<path d="M77.9034 44.4985C80.198 44.4985 82.0581 42.6383 82.0581 40.3437C82.0581 38.0491 80.198 36.1889 77.9034 36.1889C75.6087 36.1889 73.7486 38.0491 73.7486 40.3437C73.7486 42.6383 75.6087 44.4985 77.9034 44.4985Z" fill="#FF28B3"/>
<path d="M340.706 66.7144C346.468 66.7144 351.139 62.0432 351.139 56.2811C351.139 50.519 346.468 45.8479 340.706 45.8479C334.943 45.8479 330.272 50.519 330.272 56.2811C330.272 62.0432 334.943 66.7144 340.706 66.7144Z" fill="white" fill-opacity="0.85"/>
<path d="M351.145 37.9292C353.44 37.9292 355.3 36.069 355.3 33.7744C355.3 31.4798 353.44 29.6196 351.145 29.6196C348.851 29.6196 346.991 31.4798 346.991 33.7744C346.991 36.069 348.851 37.9292 351.145 37.9292Z" fill="#FF28B3"/>
<path d="M97.9031 121.64C97.3767 121.64 96.8718 121.431 96.4996 121.059C96.1274 120.686 95.9183 120.181 95.9183 119.655V77.1613C95.9183 76.6349 96.1274 76.1301 96.4996 75.7579C96.8718 75.3857 97.3767 75.1766 97.9031 75.1766C98.4295 75.1766 98.9343 75.3857 99.3065 75.7579C99.6787 76.1301 99.8878 76.6349 99.8878 77.1613V119.655C99.8878 120.181 99.6787 120.686 99.3065 121.059C98.9343 121.431 98.4295 121.64 97.9031 121.64Z" fill="white"/>
<path d="M97.9031 136.36C97.3767 136.36 96.8718 136.151 96.4996 135.778C96.1274 135.406 95.9183 134.901 95.9183 134.375V130.253C95.9183 129.727 96.1274 129.222 96.4996 128.85C96.8718 128.478 97.3767 128.268 97.9031 128.268C98.4295 128.268 98.9343 128.478 99.3065 128.85C99.6787 129.222 99.8878 129.727 99.8878 130.253V134.375C99.8878 134.901 99.6787 135.406 99.3065 135.778C98.9343 136.151 98.4295 136.36 97.9031 136.36Z" fill="white"/>
<path d="M128.64 320.685H297.471V331.383H128.64V320.685Z" fill="#DCE1FF"/>
<path d="M128.64 348.352H297.471V359.05H128.64V348.352Z" fill="#DCE1FF"/>
<path d="M128.64 385.765H297.471V396.463H128.64V385.765Z" fill="#DCE1FF"/>
<path d="M126.656 366.672H380.679V388.53H126.656V366.672Z" fill="#EDE9E4"/>
<path d="M126.656 337.972H351.145V351.938H126.656V337.972Z" fill="#EDE9E4"/>
<path d="M126.656 309.272H335.631V323.239H126.656V309.272Z" fill="#EDE9E4"/>
<path d="M126.656 310.907H335.631V314.294H126.656V310.907Z" fill="white"/>
<path d="M124.4 340.413H351.145V342.887H124.4V340.413Z" fill="white"/>
<path d="M126.656 366.672H381.896V373.526H126.656V366.672Z" fill="white"/>
<path d="M132.186 275.842H295.486V286.54H132.186V275.842Z" fill="#DCE1FF"/>
<path d="M132.186 235.26H295.486V245.958H132.186V235.26Z" fill="#DCE1FF"/>
<path d="M132.186 206.005H295.486V216.703H132.186V206.005Z" fill="#DCE1FF"/>
<path d="M126.656 252.727H380.679V274.585H126.656V252.727Z" fill="#EDE9E4"/>
<path d="M124.4 255.631H378.423V259.018H124.4V255.631Z" fill="white"/>
<path d="M383.325 278.489H123.983V250.08H383.325V278.489ZM129.276 273.196H378.032V255.373H129.276V273.196Z" fill="#213346"/>
<path d="M126.656 224.027H351.145V237.993H126.656V224.027Z" fill="#EDE9E4"/>
<path d="M126.656 195.334H335.631V209.3H126.656V195.334Z" fill="#EDE9E4"/>
<path d="M126.656 226.508H351.145V229.895H126.656V226.508Z" fill="white"/>
<path d="M128.171 197.57H332.919V200.957H128.171V197.57Z" fill="white"/>
<path d="M353.792 241.479H124.009V221.38H353.792V241.479ZM129.302 236.186H348.499V226.673H129.302V236.186Z" fill="#213346"/>
<path d="M338.271 212.753H124.009V192.687H338.271V212.753ZM129.302 207.46H332.978V197.98H129.302V207.46Z" fill="#213346"/>
<path d="M338.271 326.698H124.009V306.626H338.271V326.698ZM129.302 321.406H332.978V311.919H129.302V321.406Z" fill="#213346"/>
<path d="M353.792 355.391H124.009V335.325H353.792V355.391ZM129.302 350.098H348.499V340.618H129.302V350.098Z" fill="#213346"/>
<path d="M383.325 392.434H123.983V364.025H383.325V392.434ZM129.276 387.141H378.032V369.318H129.276V387.141Z" fill="#213346"/>
<path d="M128.925 90.128H297.755V100.826H128.925V90.128Z" fill="#DCE1FF"/>
<path d="M126.94 71.0347H380.963V92.8935H126.94V71.0347Z" fill="white"/>
<path d="M126.94 71.0347H382.18V77.8887H126.94V71.0347Z" fill="white"/>
<path d="M383.609 96.8032H124.267V68.3881H383.609V96.8032ZM129.56 91.5105H378.317V73.6808H129.56V91.5105Z" fill="#213346"/>
<path d="M150.532 37.6047V43.2149C150.532 44.9302 150.869 46.6288 151.525 48.2137C152.181 49.7986 153.143 51.2386 154.356 52.4515C155.568 53.6644 157.008 54.6263 158.593 55.2823C160.178 55.9383 161.877 56.2755 163.592 56.2747H253.839C255.555 56.2755 257.253 55.9383 258.838 55.2823C260.423 54.6263 261.863 53.6644 263.076 52.4515C264.289 51.2386 265.251 49.7986 265.907 48.2137C266.563 46.6288 266.9 44.9302 266.899 43.2149V37.6047" fill="#DCE1FF"/>
<path d="M148.918 26.4637V32.7885C148.918 40.9194 154.766 47.5022 161.978 47.5022H252.218C259.43 47.5022 265.278 40.8863 265.278 32.7885V26.4637" fill="black" fill-opacity="0.25"/>
<path d="M253.482 49.4936H163.228C159.239 49.4901 155.415 47.9039 152.594 45.0833C149.773 42.2627 148.187 38.4381 148.184 34.4491V28.8388H152.153V34.4491C152.157 37.3853 153.325 40.2002 155.401 42.2764C157.477 44.3526 160.292 45.5206 163.228 45.5241H253.482C256.418 45.5206 259.233 44.3526 261.309 42.2764C263.385 40.2002 264.553 37.3853 264.557 34.4491V28.8388H268.526V34.4491C268.523 38.4381 266.937 42.2627 264.116 45.0833C261.295 47.9039 257.471 49.4901 253.482 49.4936Z" fill="#213346"/>
<path d="M217.822 33.9131H185.907C185.206 33.9131 184.532 33.6343 184.036 33.138C183.54 32.6417 183.261 31.9686 183.261 31.2668C183.261 30.5649 183.54 29.8918 184.036 29.3955C184.532 28.8992 185.206 28.6204 185.907 28.6204H217.822C218.524 28.6204 219.197 28.8992 219.694 29.3955C220.19 29.8918 220.469 30.5649 220.469 31.2668C220.469 31.9686 220.19 32.6417 219.694 33.138C219.197 33.6343 218.524 33.9131 217.822 33.9131Z" fill="#213346"/>
<path d="M228.877 33.9131H228.719C228.017 33.9131 227.344 33.6343 226.847 33.138C226.351 32.6417 226.072 31.9686 226.072 31.2668C226.072 30.5649 226.351 29.8918 226.847 29.3955C227.344 28.8992 228.017 28.6204 228.719 28.6204H228.877C229.579 28.6204 230.252 28.8992 230.749 29.3955C231.245 29.8918 231.524 30.5649 231.524 31.2668C231.524 31.9686 231.245 32.6417 230.749 33.138C230.252 33.6343 229.579 33.9131 228.877 33.9131Z" fill="#213346"/>
<path d="M87.6353 82.2813C86.9334 82.2813 86.2603 82.0025 85.764 81.5062C85.2678 81.0099 84.9889 80.3368 84.9889 79.6349V63.7569C84.9889 63.055 85.2678 62.3819 85.764 61.8856C86.2603 61.3893 86.9334 61.1105 87.6353 61.1105C88.3371 61.1105 89.0103 61.3893 89.5065 61.8856C90.0028 62.3819 90.2816 63.055 90.2816 63.7569V79.6349C90.2816 80.3368 90.0028 81.0099 89.5065 81.5062C89.0103 82.0025 88.3371 82.2813 87.6353 82.2813Z" fill="#213346"/>
<path d="M87.708 110.922C87.0062 110.922 86.3331 110.643 85.8368 110.147C85.3405 109.651 85.0617 108.978 85.0617 108.276V92.3976C85.0617 91.6957 85.3405 91.0226 85.8368 90.5263C86.3331 90.03 87.0062 89.7512 87.708 89.7512C88.4099 89.7512 89.083 90.03 89.5793 90.5263C90.0756 91.0226 90.3544 91.6957 90.3544 92.3976V108.276C90.3544 108.978 90.0756 109.651 89.5793 110.147C89.083 110.643 88.4099 110.922 87.708 110.922Z" fill="#213346"/>
<path d="M149.871 172.039C162.279 172.039 172.338 161.98 172.338 149.571C172.338 137.163 162.279 127.104 149.871 127.104C137.462 127.104 127.403 137.163 127.403 149.571C127.403 161.98 137.462 172.039 149.871 172.039Z" fill="#DCE1FF"/>
<path d="M150.704 163.684C163.986 163.684 174.753 152.917 174.753 139.635C174.753 126.353 163.986 115.586 150.704 115.586C137.423 115.586 126.656 126.353 126.656 139.635C126.656 152.917 137.423 163.684 150.704 163.684Z" fill="#FF2457"/>
<path d="M150.704 165.662C145.554 165.668 140.517 164.147 136.231 161.29C131.946 158.433 128.604 154.369 126.628 149.612C124.653 144.855 124.133 139.62 125.134 134.567C126.136 129.515 128.613 124.873 132.253 121.229C135.894 117.585 140.533 115.103 145.584 114.097C150.636 113.09 155.872 113.605 160.631 115.575C165.39 117.546 169.457 120.883 172.318 125.166C175.179 129.449 176.706 134.484 176.705 139.635C176.696 146.53 173.955 153.141 169.081 158.02C164.208 162.898 157.6 165.646 150.704 165.662ZM150.704 117.571C146.339 117.564 142.07 118.853 138.437 121.273C134.804 123.694 131.971 127.137 130.296 131.168C128.621 135.199 128.18 139.637 129.027 143.919C129.875 148.201 131.974 152.136 135.058 155.225C138.142 158.314 142.074 160.418 146.355 161.272C150.635 162.126 155.073 161.691 159.107 160.022C163.141 158.353 166.589 155.525 169.014 151.896C171.44 148.267 172.735 144 172.735 139.635C172.728 133.791 170.406 128.188 166.277 124.053C162.148 119.917 156.548 117.587 150.704 117.571Z" fill="#213346"/>
<path d="M146.437 133.145C146.425 132.869 146.487 132.595 146.616 132.351C146.745 132.106 146.937 131.901 147.171 131.756L150.658 129.109C150.88 128.916 151.165 128.811 151.459 128.811C151.88 128.809 152.293 128.933 152.643 129.169C152.8 129.258 152.932 129.387 153.025 129.542C153.117 129.697 153.168 129.874 153.172 130.055V149.241C153.169 149.428 153.114 149.611 153.012 149.768C152.91 149.924 152.766 150.049 152.596 150.128C152.177 150.341 151.714 150.452 151.244 150.452C150.773 150.452 150.31 150.341 149.891 150.128C149.724 150.046 149.584 149.92 149.485 149.764C149.385 149.607 149.331 149.426 149.328 149.241V133.469L148.382 134.415C148.19 134.593 147.936 134.688 147.674 134.68C147.499 134.68 147.327 134.638 147.172 134.556C147.018 134.474 146.886 134.355 146.788 134.21C146.555 133.904 146.431 133.529 146.437 133.145Z" fill="white"/>
<path opacity="0.5" d="M134.674 132.112C134.58 132.115 134.487 132.095 134.403 132.053C134.245 131.979 134.122 131.846 134.061 131.683C134 131.519 134.007 131.338 134.079 131.179C135.067 128.928 136.596 126.957 138.531 125.44C140.465 123.923 142.745 122.909 145.167 122.486C145.342 122.452 145.524 122.489 145.672 122.589C145.821 122.689 145.923 122.843 145.957 123.019C145.992 123.194 145.955 123.376 145.855 123.524C145.755 123.673 145.6 123.775 145.425 123.809C143.204 124.179 141.112 125.099 139.339 126.486C137.566 127.873 136.169 129.682 135.276 131.748C135.22 131.86 135.134 131.953 135.027 132.017C134.921 132.081 134.799 132.114 134.674 132.112Z" fill="white"/>
<path opacity="0.5" d="M133.04 138.483C132.865 138.483 132.696 138.414 132.572 138.29C132.448 138.166 132.378 137.997 132.378 137.822C132.459 136.549 132.681 135.288 133.04 134.064C133.086 133.895 133.198 133.751 133.351 133.664C133.504 133.577 133.684 133.554 133.854 133.601C134.023 133.647 134.167 133.759 134.254 133.912C134.341 134.064 134.363 134.245 134.317 134.415C133.994 135.539 133.794 136.694 133.721 137.862C133.711 138.034 133.634 138.195 133.507 138.311C133.38 138.427 133.212 138.489 133.04 138.483Z" fill="white"/>
</g>
<defs>
<filter id="filter0_b_1_28" x="5.35201" y="-2.64799" width="394.296" height="479.747" filterUnits="userSpaceOnUse" color-interpolation-filters="sRGB">
<feFlood flood-opacity="0" result="BackgroundImageFix"/>
<feGaussianBlur in="BackgroundImageFix" stdDeviation="1.32399"/>
<feComposite in2="SourceAlpha" operator="in" result="effect1_backgroundBlur_1_28"/>
<feBlend mode="normal" in="SourceGraphic" in2="effect1_backgroundBlur_1_28" result="shape"/>
</filter>
<filter id="filter1_d_1_28" x="0.528213" y="29.2577" width="412.716" height="412.716" filterUnits="userSpaceOnUse" color-interpolation-filters="sRGB">
<feFlood flood-opacity="0" result="BackgroundImageFix"/>
<feColorMatrix in="SourceAlpha" type="matrix" values="0 0 0 0 0 0 0 0 0 0 0 0 0 0 0 0 0 0 127 0" result="hardAlpha"/>
<feMorphology radius="1.59748" operator="erode" in="SourceAlpha" result="effect1_dropShadow_1_28"/>
<feOffset dy="9.58486"/>
<feGaussianBlur stdDeviation="23.9622"/>
<feColorMatrix type="matrix" values="0 0 0 0 1 0 0 0 0 1 0 0 0 0 1 0 0 0 0.77 0"/>
<feBlend mode="normal" in2="BackgroundImageFix" result="effect1_dropShadow_1_28"/>
<feBlend mode="normal" in="SourceGraphic" in2="effect1_dropShadow_1_28" result="shape"/>
</filter>
</defs>
</svg>
