<svg width="200" height="60" viewBox="0 0 200 60" fill="none" xmlns="http://www.w3.org/2000/svg">
<rect width="200" height="60" rx="6" fill="black"/>
<path d="M69.79 18.16C70.88 18.16 71.86 17.51 72.28 16.45L72.06 18H73.13V14.49H69.77V15.49H71.81C71.67 16.32 70.97 17.1 69.79 17.1C68.52 17.1 67.71 16.05 67.71 14.51C67.71 12.98 68.52 11.91 69.79 11.91C70.99 11.91 71.59 12.63 71.78 13.78L73.03 13.68C72.8 11.71 71.27 10.84 69.79 10.84C68.25 10.84 66.47 11.95 66.47 14.51C66.47 17.08 68.25 18.16 69.79 18.16ZM74.4704 18H78.9504V17H75.7104V14.86H78.4504V13.87H75.7104V12H78.9504V11H74.4704V18ZM81.8109 18H83.0609V12H85.3909V11H79.4809V12H81.8109V18ZM88.0989 18H89.3389V11H88.0989V18ZM92.4121 18H93.6621V12H95.9921V11H90.0821V12H92.4121V18ZM101.78 18.16C103.45 18.16 105.16 17.07 105.16 14.5C105.16 11.93 103.45 10.84 101.78 10.84C100.12 10.84 98.4001 11.93 98.4001 14.5C98.4001 17.07 100.12 18.16 101.78 18.16ZM99.6801 14.5C99.6801 13.03 100.46 11.9 101.78 11.9C103.1 11.9 103.88 13.03 103.88 14.5C103.88 15.97 103.12 17.1 101.78 17.1C100.45 17.1 99.6801 15.97 99.6801 14.5ZM106.098 18H107.338V12.77L110.398 18H111.968V11H110.718V16.4L107.568 11H106.098V18Z" fill="white"/>
<path d="M74.338 45.352C76.736 45.352 78.892 43.922 79.816 41.59L79.332 45H81.686V37.278H74.294V39.478H78.782C78.474 41.304 76.934 43.02 74.338 43.02C71.544 43.02 69.762 40.71 69.762 37.322C69.762 33.956 71.544 31.602 74.338 31.602C76.978 31.602 78.298 33.186 78.716 35.716L81.466 35.496C80.96 31.162 77.594 29.248 74.338 29.248C70.95 29.248 67.034 31.69 67.034 37.322C67.034 42.976 70.95 45.352 74.338 45.352ZM89.084 45.352C91.878 45.352 94.628 43.526 94.628 39.522C94.628 35.518 91.878 33.648 89.084 33.648C86.312 33.648 83.54 35.518 83.54 39.522C83.54 43.526 86.312 45.352 89.084 45.352ZM86.268 39.522C86.268 37.234 87.258 35.848 89.084 35.848C90.932 35.848 91.9 37.234 91.9 39.522C91.9 41.788 90.932 43.152 89.084 43.152C87.258 43.152 86.268 41.788 86.268 39.522ZM101.358 45.352C104.152 45.352 106.902 43.526 106.902 39.522C106.902 35.518 104.152 33.648 101.358 33.648C98.5856 33.648 95.8136 35.518 95.8136 39.522C95.8136 43.526 98.5856 45.352 101.358 45.352ZM98.5416 39.522C98.5416 37.234 99.5316 35.848 101.358 35.848C103.206 35.848 104.174 37.234 104.174 39.522C104.174 41.788 103.206 43.152 101.358 43.152C99.5316 43.152 98.5416 41.788 98.5416 39.522ZM113.543 49.752C117.371 49.752 119.197 47.948 119.197 44.12V34H116.579V35.848C115.985 34.462 114.797 33.648 113.191 33.648C109.803 33.648 108.087 36.354 108.087 39.588C108.087 42.822 109.803 45.352 113.191 45.352C114.797 45.352 115.985 44.626 116.579 43.284V44.56C116.579 47.068 115.017 47.552 113.543 47.552C112.091 47.552 111.299 46.804 111.145 46.034L108.417 46.254C108.417 47.508 109.891 49.752 113.543 49.752ZM110.815 39.588C110.815 36.882 112.179 35.848 113.697 35.848C115.171 35.848 116.579 36.926 116.579 39.742C116.579 42.228 115.171 43.152 113.697 43.152C112.223 43.152 110.815 42.294 110.815 39.588ZM121.708 45H124.436V29.38H121.708V45ZM131.731 45.352C134.371 45.352 136.549 43.966 136.769 41.766L134.107 41.546C133.953 42.14 133.491 43.152 131.731 43.152C129.971 43.152 129.025 41.92 129.025 40.094H136.791V39.566C136.791 35.452 134.371 33.648 131.731 33.648C129.091 33.648 126.297 35.452 126.297 39.566C126.297 43.68 129.091 45.352 131.731 45.352ZM129.025 38.29C129.025 37.124 129.971 35.848 131.731 35.848C133.491 35.848 134.261 37.124 134.261 38.29H129.025ZM142.974 45H145.702V38.488H148.32C149.64 38.488 153.908 38.114 153.908 34.066C153.908 29.996 149.64 29.6 148.32 29.6H142.974V45ZM145.702 36.31V31.8H147.88C150.014 31.8 151.18 32.372 151.18 34.066C151.18 35.738 150.014 36.31 147.88 36.31H145.702ZM155.527 45H158.255V29.38H155.527V45ZM163.96 45.33C165.83 45.33 167.018 44.142 167.502 42.734V45H170.12V38.048C170.12 34.968 168.338 33.648 165.324 33.648C161.43 33.648 160.462 36.046 160.462 37.278L163.19 37.498C163.234 36.618 163.85 35.848 165.324 35.848C166.292 35.848 167.15 36.09 167.37 36.86C167.722 38.114 166.534 38.136 165.17 38.356C162.508 38.796 160.33 39.522 160.33 42.096C160.33 44.142 162.068 45.33 163.96 45.33ZM163.058 41.854C163.058 41.062 163.718 40.49 165.016 40.248C166.336 40.006 167.15 39.72 167.502 39.214V39.94C167.502 42.008 166.094 43.13 164.62 43.13C163.74 43.13 163.058 42.668 163.058 41.854ZM173.901 49.4H176.673L183.009 34H180.259L177.069 41.766L173.769 34H170.997L175.727 45L173.901 49.4Z" fill="white"/>
<path d="M48.8692 28.7981L41.8791 24.7705L36.1296 30.3274L41.3844 35.4067L48.8692 31.0866C49.0693 30.9708 49.2355 30.8044 49.351 30.6041C49.4665 30.4038 49.5273 30.1766 49.5273 29.9454C49.5273 29.7142 49.4665 29.487 49.351 29.2867C49.2355 29.0864 49.0693 28.92 48.8692 28.8042V28.7981Z" fill="#FFD109"/>
<path d="M40.6935 24.0795L33.0003 19.6388L16.1431 11L35.1829 29.4049L40.6935 24.0795Z" fill="#06EF79"/>
<path d="M16.4221 49.3722L33.0296 40.2239L40.1975 36.0855L35.1829 31.2378L16.4221 49.3722Z" fill="#F93646"/>
<path d="M15.0183 11.7446L15 48.9152L34.2348 30.3214L15.0183 11.7446Z" fill="#05D5FB"/>
</svg>
